<svg id="Layer_1" data-name="Layer 1" xmlns="http://www.w3.org/2000/svg" viewBox="0 0 106.67 32"><defs><style>.cls-1{fill:#e92636;}.cls-2{fill:#fff;}</style></defs><title>Artboard 1svg</title><path class="cls-1" d="M29.29,29.83l-5.5-.27c-.74,0-1.48,0-2.22,0-.48,0-1,0-1.46,0-.74,0-1.49,0-2.23.08s-1.68.16-2.52.18a29.34,29.34,0,0,1-3.25.15c-.47,0-1,0-1.44,0-1.17,0-2.33-.07-3.5-.08-.77,0-1.55,0-2.32,0H3A1.75,1.75,0,0,1,1.45,28.5c0-.43-.06-.86-.13-1.28a11,11,0,0,1-.07-3c.07-.7.22-1.38.33-2.07.06-.32.1-.64.17-1,.1-.54.22-1.08.32-1.63,0-.12,0-.24.05-.36.29-1.94.29-3.91.39-5.87.06-1.35.08-2.7.11-4,0-.72,0-1.44,0-2.15,0-.54-.05-1.07-.11-1.6a1.58,1.58,0,0,0-.18-.43,1.31,1.31,0,0,1,.22-1.41,2.55,2.55,0,0,1,1.29-.74c.63-.19,1.27-.36,1.92-.49a10,10,0,0,1,1.34-.17c.63-.06,1.27-.12,1.91-.14s1.37,0,2.06,0S12.56,2.07,13.3,2l2.88-.11c.46,0,.92,0,1.38,0l2.3-.08,2.06-.06,2.34-.08,2-.06,2.34-.08,2-.05,1.87-.08h0c1.08,0,2.17,0,3.25.09a2.34,2.34,0,0,1,1.9,1.14,1.93,1.93,0,0,1,.26,1c0,.54.06,1.07.08,1.6l.09,2,.09,1.65c0,.27,0,.54,0,.81,0,.67.06,1.34.1,2,.06.86.14,1.71.2,2.56,0,.36,0,.73.06,1.09s.06.71.09,1.07,0,.66.07,1c0,.61.07,1.22.1,1.83,0,.9.13,1.8.11,2.7s-.06,2.11-.17,3.16a13.45,13.45,0,0,1-.41,1.75,4.5,4.5,0,0,1-.72,1.59,3.2,3.2,0,0,1-2.46,1.6c-.8,0-1.6,0-2.39,0-1.19-.05-2.37-.12-3.55-.18ZM14.22,12.09c0,.21,0,.5.06.78.09,1.25.17,2.5.26,3.75l.3,4.5a4.46,4.46,0,0,0,.05.63,1.52,1.52,0,0,0,2.31,1,.79.79,0,0,1,.58-.16,1.35,1.35,0,0,0,.6-.05c.78-.26,1.57-.5,2.33-.82,1.1-.46,2.18-1,3.26-1.47.78-.36,1.54-.73,2.31-1.1a1.58,1.58,0,0,0,1-1.38c0-.16.1-.22.22-.28a1.5,1.5,0,0,0,.71-2,1.66,1.66,0,0,0-.89-.86.88.88,0,0,1-.41-.28,1.75,1.75,0,0,0-.92-.8c-.5-.19-1-.35-1.5-.57C23,12.37,21.46,11.67,20,11c-.86-.39-1.72-.79-2.59-1.14a1.47,1.47,0,0,0-1.57.29.81.81,0,0,1-.28.17A1.59,1.59,0,0,0,14.22,12.09Z"/><path class="cls-2" d="M14.22,12.09a1.59,1.59,0,0,1,1.29-1.79.81.81,0,0,0,.28-.17,1.47,1.47,0,0,1,1.57-.29c.87.35,1.73.75,2.59,1.14,1.51.69,3,1.39,4.53,2.07.48.22,1,.38,1.5.57a1.75,1.75,0,0,1,.92.8.88.88,0,0,0,.41.28,1.66,1.66,0,0,1,.89.86,1.5,1.5,0,0,1-.71,2c-.12.06-.22.12-.22.28a1.58,1.58,0,0,1-1,1.38c-.77.37-1.53.74-2.31,1.1-1.08.5-2.16,1-3.26,1.47-.76.32-1.55.56-2.33.82a1.35,1.35,0,0,1-.6.05.79.79,0,0,0-.58.16,1.52,1.52,0,0,1-2.31-1,4.46,4.46,0,0,1-.05-.63l-.3-4.5c-.09-1.25-.17-2.5-.26-3.75C14.26,12.59,14.24,12.3,14.22,12.09Z"/><path d="M95.16,20.79A2.13,2.13,0,0,0,95,21a.61.61,0,0,0-.07.1c-.05,0-.05-.06-.07-.08s0,0,0,0,0,0,0,0a.13.13,0,0,0,.07.16c0,.12-.06.12-.17.09a.28.28,0,0,0-.12,0,.78.78,0,0,0,0,.14s0,.06,0,.09,0,0,0,0,0,0,0,0,0-.16,0-.23a.16.16,0,0,0,0-.09l-.19.45s.07,0,.1.05.08,0,.06.09a.14.14,0,0,1-.12.09l-.16,0s0,0-.07,0a2.88,2.88,0,0,1-.35.26s0,0,0,0,0-.1-.12,0l-.12.17a.14.14,0,0,1-.19.06l-.11-.06c-.06,0-.09,0-.12,0a.57.57,0,0,0,0,.14c-.06,0-.06-.11-.11-.16a.13.13,0,0,1-.1.07.15.15,0,0,0-.1.09s-.06,0-.08,0,0,0,0,0,0-.06,0-.08,0,.12-.09.18,0-.12-.09-.17-.09.07-.14.1,0,0,0-.06-.11.15-.16.22a.3.3,0,0,1-.21.12c-.08,0-.08,0-.1-.07s0,0,0-.05a.76.76,0,0,0-.08.11.07.07,0,0,1-.1,0,.38.38,0,0,1-.15-.13c0-.06-.08-.09-.14-.08a.19.19,0,0,1-.13,0c-.08,0-.1,0-.11.06v0a.06.06,0,0,1,0,.06s0,0,0-.05a.75.75,0,0,0-.07-.12c-.08-.09-.16-.18-.3-.1a.16.16,0,0,1,0-.1,1.59,1.59,0,0,0,.07-.2s0,0,0-.06a.17.17,0,0,1-.06-.16.17.17,0,0,0,0-.12.08.08,0,0,0-.08,0s0,0,0,.06a2.5,2.5,0,0,1-.06.38.31.31,0,0,1-.07.18.81.81,0,0,1-.18-.19.16.16,0,0,1,0-.15,1,1,0,0,0,.11-.42s0-.06.06-.06,0,0,0,0a.27.27,0,0,0,0-.32c0,.05,0,.13-.09.19s0-.05-.06-.06a.59.59,0,0,0-.06.14c0,.06,0,.06-.09,0a.75.75,0,0,1-.1-.2s0,.09,0,.14,0,.12-.18.09a.31.31,0,0,1-.1-.05.34.34,0,0,0-.12-.06c-.09,0-.14,0-.17.09a1.61,1.61,0,0,0,0,.49,1,1,0,0,1,0,.17.21.21,0,0,1-.11.2s0,0,.07.07a.47.47,0,0,1,.16.31.43.43,0,0,1,0,.11,1.79,1.79,0,0,1-.12.24.16.16,0,0,0,0,.1,1.66,1.66,0,0,1,0,.24.94.94,0,0,1-.39-.62.25.25,0,0,0,0,.07c-.06.21-.12.41-.17.62s0,.07-.1.07-.06,0,0,0l0-.19a.64.64,0,0,1,0-.07.06.06,0,0,0-.06,0s-.06,0-.06-.06V23c0-.09,0-.09-.09-.09a.14.14,0,0,1-.1-.05c-.08,0-.1-.07,0-.14a.09.09,0,0,0,0-.11.49.49,0,0,0,0-.12s0-.05,0-.07,0,0,.07,0,.08,0,.09,0,0-.06,0-.08,0-.11,0-.16a.52.52,0,0,0,.07-.15c0-.09,0-.11-.07-.18a.58.58,0,0,0-.11.24.26.26,0,0,1-.2.18c-.06,0-.07,0-.06-.06s0-.08,0-.13a.24.24,0,0,0,0-.18,1.89,1.89,0,0,1-.2-.46.38.38,0,0,1,0-.34.28.28,0,0,0,0-.2c0-.06,0-.11,0-.17a.14.14,0,0,1,0-.11s0-.07,0-.1l-.13-.17.08-.08s0,0,0-.05,0-.11,0-.16l.2-.28a.2.2,0,0,0,.06-.18v-.13s0,0,0,0,0,0,0,0a.27.27,0,0,0,0,.15.16.16,0,0,1-.06.14h-.06a1,1,0,0,1,0-.17s0-.08-.07-.08-.08,0-.08-.09,0,0,0-.06,0-.08.12-.05c0-.14,0-.27,0-.42A.22.22,0,0,1,88,19s0,.06.07.05,0,0,0-.07,0-.24,0-.37,0-.34,0-.51,0-.11-.11-.11h-.11A.25.25,0,0,1,88,17.8v0c-.09,0-.09-.1-.07-.18a.17.17,0,0,0-.05-.2.09.09,0,0,1,0-.13.34.34,0,0,0,0-.31.55.55,0,0,1,0-.42,1.33,1.33,0,0,0,0-.4s0-.07,0-.1,0-.07,0-.11,0-.07,0-.09.07-.06,0-.11a.15.15,0,0,1,0-.09,3.24,3.24,0,0,1,0-.44,1.27,1.27,0,0,0,0-.2v.08s0,0,0,0,0,0-.06,0,0-.06,0-.1,0-.08.06-.09a.07.07,0,0,0,0-.12c0-.07,0-.1,0-.14s0,0,.06-.05a.47.47,0,0,1,0-.51S88,14,88,14L88,12.9c0-.15,0-.3,0-.45s0-.07,0-.09,0-.09,0-.14a.86.86,0,0,0,0-.28.26.26,0,0,1,0-.24.13.13,0,0,0,0-.18.24.24,0,0,1,0-.23,1.76,1.76,0,0,0,.07-.56c0-.23,0-.46,0-.69a1.34,1.34,0,0,1,.1-.44.7.7,0,0,0,.06-.32.71.71,0,0,1,0-.29.23.23,0,0,1,.21-.17c.22,0,.26,0,.35.19A2.13,2.13,0,0,1,89,10s0,0,0,.07a.45.45,0,0,0,0,.28c0,.44,0,.88.06,1.32,0,.26,0,.52,0,.78a7.63,7.63,0,0,1,0,.82,3.8,3.8,0,0,0,.08,1,.25.25,0,0,0,0,.07.75.75,0,0,1,0-.16c0-.1.07-.13.17-.12a.41.41,0,0,1,.19,0c.11.07.13.06.21,0a.23.23,0,0,1,.07-.07.12.12,0,0,0,0-.18s-.06-.05,0-.1a.1.1,0,0,1,.11-.07.4.4,0,0,0,.24-.07.34.34,0,0,1,.22-.05.57.57,0,0,0,.42-.12.33.33,0,0,1,.25-.08.53.53,0,0,0,.18-.05,1.06,1.06,0,0,1,.5,0,.05.05,0,0,1,.06,0c0,.05,0,.05.09,0a2,2,0,0,1,.77,0,1.36,1.36,0,0,0,.4,0,.12.12,0,0,0,.14-.06.05.05,0,0,1,.07,0c0,.11-.06.21,0,.32s.07,0,.11,0,.08,0,.08.08,0,.17.17.14l.1,0c.1,0,.15,0,.18.14s0,.08,0,.11.07.07.14,0a.18.18,0,0,1,.16,0,.22.22,0,0,1,.17.21c0,.16,0,.31,0,.47s0,.08.07.07,0,0,.06,0,0,0,.07,0,.19,0,.24.14,0,.06,0,.1,0,0,0,0a.19.19,0,0,1,.16.16v.12a.13.13,0,0,0,.1.14s0,0,0,0a2,2,0,0,0,.25.54.09.09,0,0,1,0,.13l-.09.11s0,0,0,0a.19.19,0,0,1,.2.21.18.18,0,0,1-.08.21s0,0,0,.05a.25.25,0,0,1,0,.19c0,.1,0,.21-.08.31s0,.11,0,.14a.09.09,0,0,1,.05.14.61.61,0,0,0,0,.19s0,.05.06.05a1,1,0,0,0,.17,0,.1.1,0,0,1,.11.07,2.88,2.88,0,0,1,.09.4.41.41,0,0,1,0,.22s-.06.11-.09.15a.24.24,0,0,0,0,.23.61.61,0,0,1,0,.18.14.14,0,0,0,.11.11,1.67,1.67,0,0,1-.39,0c.12.09.08.21.08.31a.22.22,0,0,0,.07.19s0,.06,0,.1-.13.29-.2.44a.15.15,0,0,0-.14-.07c-.05,0-.08.05-.12.08l-.12.1a.23.23,0,0,0,.13,0s.06,0,.06.07,0,.16-.06.25Zm-5.12-6a.07.07,0,0,0,0,.06.58.58,0,0,1-.31.36l-.06,0-.41.36A.49.49,0,0,0,89,16,.11.11,0,0,1,89,16a.2.2,0,0,0,0,.17v.12a11.14,11.14,0,0,1,0,1.16v.1a7.87,7.87,0,0,1,0,.84.13.13,0,0,0,0,.06,6,6,0,0,1,.08.73,3.93,3.93,0,0,0,.06.48c0,.05,0,.07.08.07h.28a.05.05,0,0,1,.06.06v.07a.14.14,0,0,0,.08.16l.59.41a.26.26,0,0,0,.09,0,.78.78,0,0,1,.38.2.42.42,0,0,0,.3.13s0,0,.06,0l.24.08a.7.7,0,0,1,.2.08.19.19,0,0,0,.14.05h.81a.77.77,0,0,0,.45-.13l.47-.32a.59.59,0,0,1,.28-.1c.07,0,.09,0,.1-.09a.25.25,0,0,1,0-.12c.08-.16.16-.33.25-.5s0-.06,0-.07,0,.11,0,.16.09,0,.09-.05a.59.59,0,0,0,0-.26.18.18,0,0,1,.06-.19l.07-.07s0-.06-.07-.05,0,0-.06-.07a.38.38,0,0,1,0-.1.77.77,0,0,0,.07-.29,1.79,1.79,0,0,1,0-.61.25.25,0,0,0,0-.08.08.08,0,0,0,0-.1c-.06,0,0-.09,0-.15a.13.13,0,0,0,0-.07c0-.08,0-.17,0-.23s0-.05,0-.09a1.4,1.4,0,0,0-.06-.41.22.22,0,0,0-.09-.17s0,0,0-.07a.36.36,0,0,1,0-.11.16.16,0,0,0,0-.1,2.07,2.07,0,0,0-.34-.9l0,0a2.82,2.82,0,0,0-.26-.44c-.08-.09-.08-.09-.17,0a.06.06,0,0,1-.05,0,2.06,2.06,0,0,0-.17-.33.12.12,0,0,0-.08-.06c-.11,0-.11,0-.14-.11v-.05a.07.07,0,0,0-.07-.06.07.07,0,0,0-.08.06.44.44,0,0,1,0,.14.53.53,0,0,1-.11-.31,1.62,1.62,0,0,0,0-.22s0,0,0-.07v0c-.08.16-.21.17-.36.11s0,0,0,0a.17.17,0,0,0-.08-.24c0,.09,0,.17,0,.25a1.89,1.89,0,0,1-.11-.25.12.12,0,0,0-.09-.08c-.06,0-.09,0-.07.06a.39.39,0,0,1,0,.24.94.94,0,0,1,0,.16.16.16,0,0,0,0,.1s0,0,.06,0,0,0,0,0l0-.11a1,1,0,0,1,0,.24s0,0,0,0h-.36c0-.07,0-.11,0-.17a.46.46,0,0,1-.21.08.16.16,0,0,0-.09,0,.18.18,0,0,1-.16,0s-.06,0-.06-.07v-.12c-.06,0-.08.06-.12.07s0-.06,0-.06a.19.19,0,0,0-.08.17.11.11,0,0,1-.07.13c-.06,0-.12,0-.17,0s-.11-.08-.13-.15,0,.08,0,.12,0,.11,0,.15a.56.56,0,0,1-.17.09S90,15,90,15Zm4.38,4.81-.14.16s0,0,0,.08a.32.32,0,0,1,0,.37.05.05,0,0,0,.07.07.14.14,0,0,1,.21,0s.06,0,.09,0a.39.39,0,0,0,.15-.16s0,0,0,0-.19,0-.22-.16A4.16,4.16,0,0,0,94.42,19.63Zm-1.18,1.29a.27.27,0,0,1-.16.28.23.23,0,0,0-.11.11c0,.07,0,.12.06.14s.06,0,.09.06a.17.17,0,0,0,.07-.17c0-.11,0-.12.12-.11h.18a.32.32,0,0,0,.17,0c.09,0,.1-.07.08-.18a.09.09,0,0,0,0,0,.21.21,0,0,1-.27,0A2,2,0,0,1,93.24,20.92Zm-3.7-.77c0-.07-.06-.12-.11-.18a0,0,0,0,0-.08,0,.19.19,0,0,0,0,.17.18.18,0,0,1,.07.08,0,0,0,0,0,.06,0,0,0,0,0,0,0-.05Zm5.71-1.48a.08.08,0,0,0,0,0,.07.07,0,0,0-.07-.07c-.06,0-.06,0-.07.08a.19.19,0,0,0,0,.08.06.06,0,0,0,.08.05S95.25,18.72,95.25,18.67ZM88,20.07h0a.17.17,0,0,0,0,.14c0,.05.06.08.09.13s0,0,0,0,0-.12-.05-.15S88.08,20.09,88,20.07Zm.11-1.73v.05a.05.05,0,0,0,0,.06s0,0,.07,0a.14.14,0,0,0,0-.07c0-.06,0-.1-.08-.1S88.15,18.3,88.15,18.34Zm5.22,3.76a.15.15,0,0,0,0-.07s0-.06-.07-.05-.05,0-.05.07a.2.2,0,0,0,0,.11.06.06,0,0,0,.1,0A.13.13,0,0,0,93.37,22.1Zm-3.55-7.37s-.07,0-.06.09,0,.08.06.08a.08.08,0,0,0,.09-.08C89.9,14.77,89.87,14.73,89.82,14.73ZM88.16,21c0-.06,0-.11-.08-.11A.07.07,0,0,0,88,21c0,.07,0,.11.07.11A.07.07,0,0,0,88.16,21Zm7.47-2.51a.38.38,0,0,0,0-.37A.67.67,0,0,0,95.63,18.51Zm-.4-.15v0a.07.07,0,0,0-.07-.08c-.06,0-.05.06-.05.09v.05s0,.07.07.07S95.22,18.41,95.23,18.36Zm-7.13-.43a.11.11,0,0,0,0,.05s0,.05.08,0a.07.07,0,0,0,0-.07l0-.1s0,0,0,0,0,0,0,0S88.1,17.89,88.1,17.93Zm.7-4.81c0,.07,0,.1.06.1s.07-.05.07-.11,0-.09-.08-.08S88.81,13.08,88.8,13.12Zm.13,9.09c0-.06,0-.12-.08-.12s0,0,0,.12h0s0,.06.06.06A.07.07,0,0,0,88.93,22.21Zm4.26-7.59a0,0,0,0,1,0,0,.15.15,0,0,0,0,.18,0,0,0,0,0,.07,0,0,0,0,0,0,0-.06l-.06-.12S93.21,14.62,93.19,14.62Zm2.2,4.07a.29.29,0,0,0,0-.09.07.07,0,0,0-.06,0s0,0,0,.06a.22.22,0,0,0,0,.08s0,.07.06.07S95.39,18.73,95.39,18.69ZM94.78,17v0s0,.06,0,.07a.07.07,0,0,0,.06,0s0-.05,0-.07a.08.08,0,0,0,0-.05s0-.05,0-.05a.05.05,0,0,0,0,.06A.06.06,0,0,0,94.78,17Zm-3.25,5.59s0-.12-.08-.12a.07.07,0,0,0-.06.07c0,.06,0,.1.07.1S91.52,22.59,91.53,22.55Zm3.75-3.11s0,0,0,.09,0,.08.05.08a.09.09,0,0,0,0-.17ZM93.2,14.07a.16.16,0,0,0,0,.17,0,0,0,0,0,0,0,.06.06,0,0,0,.05-.06A.32.32,0,0,0,93.2,14.07ZM90,13.64c-.06.06-.07.11,0,.16a.07.07,0,0,0,.08,0,0,0,0,0,0,0-.08S90.05,13.67,90,13.64Zm2.85,7.48a.09.09,0,0,0,0,.08.08.08,0,0,0,.07,0,0,0,0,0,0,0-.06l0-.1s0,0-.06,0S92.86,21.08,92.86,21.12Zm1.23-.93s0,0,0,.07,0,.09,0,.1a.08.08,0,0,0,.08-.08A.08.08,0,0,0,94.09,20.19Zm-5,1.67A.19.19,0,0,0,89,22a.07.07,0,0,0,.07,0s0,0,0-.06A.3.3,0,0,0,89.08,21.86Zm5.65-5a.2.2,0,0,0,0-.11s0,0,0,0a0,0,0,0,0,0,0,.15.15,0,0,0,0,.13s0,.05.06,0S94.72,16.91,94.73,16.89Zm-.8,3.17a.17.17,0,0,0,0,.13s0,.06,0,.07,0,0,0,0a.05.05,0,0,0,0-.08A.17.17,0,0,0,93.93,20.06Zm.78.5s0,0,0,0,0,.07,0,.07a.07.07,0,0,0,.06-.09.16.16,0,0,0-.06-.08s0,0,0,0A.07.07,0,0,1,94.71,20.56Zm-4,.67a.23.23,0,0,0,0,.16s0,.05,0,.05a0,0,0,0,0,0-.05C90.82,21.32,90.78,21.28,90.73,21.23Zm3.9-1.49a.23.23,0,0,0,0,.16,0,0,0,0,0,0,0s0,0,0,0S94.68,19.79,94.63,19.74Zm-3.54,1.8a.18.18,0,0,0,0,.18s0,0,0,0,0,0,0,0A.41.41,0,0,0,91.09,21.54Zm2.73-.42a.22.22,0,0,0,0,.17,0,0,0,0,0,0,0s0,0,0,0A.37.37,0,0,0,93.82,21.12Zm-.25.23a.16.16,0,0,0,0,.13s0,.06.06.05a0,0,0,0,0,0-.06A.17.17,0,0,0,93.57,21.35Zm-2.31-7a.24.24,0,0,0,0,.16s0,0,0,0,0,0,0-.07A.31.31,0,0,0,91.26,14.39Zm-1.07,7.38a.17.17,0,0,0,0,.17,0,0,0,0,0,.06,0s0,0,0-.05A.61.61,0,0,0,90.19,21.77ZM95,17a.17.17,0,0,0,0,.17l0,0s0,0,0,0A.13.13,0,0,0,95,17ZM90.78,22.2a.16.16,0,0,0,0-.19s0,0,0,0l0,0A.32.32,0,0,0,90.78,22.2ZM88.2,18.89a.26.26,0,0,0,0,.15s0,.05,0,0a0,0,0,0,0,0-.06C88.27,19,88.23,18.94,88.2,18.89Zm6.52-2.66a.15.15,0,0,0,0,.16s0,0,.05,0S94.78,16.31,94.72,16.23Zm-6.66-1.09a.14.14,0,0,0,0,.17s0,0,0,0,0,0,0,0A.18.18,0,0,0,88.06,15.14Zm0-2.56c.07,0,.16,0,.19-.08A.54.54,0,0,0,88,12.58ZM94.89,20a.2.2,0,0,0,0-.2A.18.18,0,0,0,94.89,20Zm-1,1.41a.17.17,0,0,0,0,.14s0,0,0,0,0,0,0,0A.24.24,0,0,0,93.89,21.36Zm-3.52-7.1a.12.12,0,0,0,.07-.11s0-.05-.07-.05A.43.43,0,0,0,90.37,14.26ZM94,21.69s0,0,0,0-.06,0-.06.07,0,0,0,0S94,21.73,94,21.69Zm1.07-5.8c-.11,0-.11,0-.09.15Zm-1.2,4.73s0,0,0,0,0,0,0,.05,0,.06,0,.05S93.86,20.65,93.87,20.62ZM88.05,16.4a.22.22,0,0,0,0-.14s0,0,0,0,0,0,0,0A.11.11,0,0,0,88.05,16.4Zm.11-4.54s0,0,0,0a.07.07,0,0,0,0,.07s0,0,0,0S88.15,11.89,88.16,11.86Zm1,3.8a.19.19,0,0,0,0-.18A.15.15,0,0,0,89.14,15.66Zm6.11,4.13s0-.05,0-.05a0,0,0,0,0,0,0,0,0,0,0,0,0,0S95.25,19.81,95.25,19.79Zm-.75-1.08s0,0,0,0,0,0,0,.06,0,0,0,0S94.5,18.73,94.5,18.71Zm.26-3.16a.14.14,0,0,0-.14,0C94.68,15.6,94.71,15.61,94.76,15.55ZM91,21.91s0,0,0,0a0,0,0,0,0,0-.05s0,0,0,0S91,21.89,91,21.91Zm3.86-6.06a.05.05,0,0,0-.06,0s0,0,0,0,0,0,0,0ZM88,14.38s0,0,0,0,0,0-.06,0,0,0,0,0S88,14.37,88,14.38Zm6.66,6.72a0,0,0,0,0,0,0s0,0,0,0,0,0,0,0S94.67,21.1,94.69,21.1ZM95,16.74a.14.14,0,0,0,0,.11C95.05,16.8,95,16.77,95,16.74Zm-1.33,4.89s0,0,0-.07h0S93.68,21.6,93.68,21.63Zm.73-3.16,0,0a0,0,0,0,0,0,0s0,0,0,0A0,0,0,0,0,94.41,18.47Zm-5.85,3.92s0,.07,0,.1h0s0-.05,0-.08Zm-.29-3.75s0,0,0,0h0s0,0,0,0S88.26,18.64,88.27,18.64Zm3.23-4.4,0,0s0,0,0,0a0,0,0,0,0,0,0Zm-.27,7.61s0,0,0,0a0,0,0,0,0,0,0l0,0A0,0,0,0,0,91.23,21.85Zm-.66-7.34s0,0,0,0v0s0,0,0,0S90.58,14.51,90.57,14.51Zm-2.48,6.81s0,0,0,0v0s0,0,0,0S88.11,21.33,88.09,21.32Z"/><path d="M52,21.09a.21.21,0,0,0,.14.07c.07,0,.14,0,.13.12s0,0,0,0a.57.57,0,0,0,.22.11c.19,0,.37.08.56.09a.12.12,0,0,1,.07,0,.9.9,0,0,0,0,.09l.1-.09a.09.09,0,0,1,.12,0l.08,0a.31.31,0,0,0,.38-.07.13.13,0,0,1,.09,0l.29,0a.15.15,0,0,1,.11.08c0,.05.06.05.11,0,.33-.09.65-.21,1-.31a.1.1,0,0,1,.12,0,.78.78,0,0,0,.68.08.09.09,0,0,0,.06-.06s0,0,0-.06h0s0,0,0,0l-.12.23-.16.33c-.05,0,0-.06-.06-.08s-.08,0-.09,0A.2.2,0,0,0,56,22s0,.05,0,.06l-.1,0a.24.24,0,0,0,0,.09.25.25,0,0,1,0,.07c0,.06,0,.13,0,.16a.21.21,0,0,1,0,.15s0,.09,0,.09-.07,0-.08-.07,0,0,0-.06a.13.13,0,0,1-.16,0c-.05,0-.1-.08-.17-.06a.07.07,0,0,1,0,0l-.07-.13s-.05.06-.1.06a.59.59,0,0,0,0-.13.05.05,0,0,0,0,0,0,0,0,0,0,0,0,.19.19,0,0,0,0,.15s0,.05,0,.08l-.09.08s-.05-.06-.09-.08l0,.19a1.18,1.18,0,0,0-.25,0c-.13,0-.18,0-.2.15s0,.09-.08.08,0-.05,0-.08l-.36.05a.25.25,0,0,1-.19,0l-.16-.11a.3.3,0,0,0-.29,0l-.24.11-.19.07s-.08,0-.08-.05,0-.05,0-.08-.07,0-.11,0l-.23.06a.46.46,0,0,1-.34-.06.5.5,0,0,0-.23-.09.47.47,0,0,1-.17,0c-.08,0-.17-.08-.23,0a.45.45,0,0,0-.26-.19,2.52,2.52,0,0,0-.29-.12c-.05,0-.11-.06-.17,0l-.07,0L50.27,22a.18.18,0,0,1-.08-.09.76.76,0,0,1-.06-.18.11.11,0,0,1-.16,0c-.15-.05-.16-.07-.18-.23a2.85,2.85,0,0,0-.06-.39l-.19.37-.36-.41s0-.08,0-.13A.3.3,0,0,1,49,20.8l-.1-.11a.72.72,0,0,1-.11-.19,5,5,0,0,0-.34-.83.28.28,0,0,1,0-.25.17.17,0,0,0,0-.18.64.64,0,0,1-.1-.33c0-.05,0-.1.06-.12s-.05-.06-.07-.1a.41.41,0,0,0,.1-.21.18.18,0,0,0,0-.16.46.46,0,0,1-.08-.19s0-.05,0-.07.06-.06,0-.12l-.12-.17c.09-.05.09-.05.08-.13a.22.22,0,0,0,0-.08.09.09,0,0,1,.06-.12c.06,0,.08-.1.12-.15s0,0,0,0,0,0,0,0-.06-.21,0-.31a.65.65,0,0,0,.07-.34,3.09,3.09,0,0,0,0-.43s0-.06.05-.07.11-.07,0-.14l0,0c0-.12-.09-.23-.06-.36a1.46,1.46,0,0,0,0-.2.18.18,0,0,1,.06-.1.23.23,0,0,1,0,.11c0,.08,0,.08.11.08a.18.18,0,0,1,0-.19s0-.09,0-.13a.28.28,0,0,0-.06-.35l.16,0c.07,0,.1-.05.12-.12s0-.24.08-.37,0-.1.08-.13,0,0,0-.06,0-.09,0-.13a1.45,1.45,0,0,1,0,.62s.06,0,.07,0a.38.38,0,0,0,.13-.32,1.6,1.6,0,0,1-.05-.21.22.22,0,0,1,.08-.25c.13-.1.24-.21.36-.32l0,0c.1,0,.16-.08.22-.13s0,0,0,.05,0,.05.08,0l.12-.18s-.07,0-.11,0a.08.08,0,0,1,0-.07c.09-.18.16-.37.26-.56l.2.21a.41.41,0,0,1,.15-.21.08.08,0,0,1,.13,0v0c0-.06,0-.14.06-.17s.11,0,.17,0,.07,0,.08-.05.07-.11.12-.15a1.47,1.47,0,0,1,.4-.14.15.15,0,0,1,.11,0l.09.09.07.06s.12,0,.13,0,0-.07,0-.1,0-.13,0-.2.14-.1.27,0a1,1,0,0,0,.21.19l-.06-.32a.29.29,0,0,1,.13.08l.13.09v-.3a.24.24,0,0,1,.11.09l.16.26c0,.07.07.07.14,0a.75.75,0,0,0,.2-.1s0,.05,0,.07.12.23.21.32.06,0,.1,0,0-.05.06-.06a.32.32,0,0,1,0,.16s0,.05,0,.05,0,.13,0,.19,0,.09.08.12,0-.21.08-.31a.33.33,0,0,1,.42-.19l.06,0,0,0c.09,0,.1,0,.13.09a.14.14,0,0,1,0,.06c.07.16.2.19.32.07h0c0,.13,0,.25,0,.37a1.27,1.27,0,0,0,.06.18.12.12,0,0,0,.11.08,1.55,1.55,0,0,0,0-.31s0,0,.05.05a.4.4,0,0,0,.13.13.43.43,0,0,1,.12.22l.12.42c0-.1.11-.14.13-.23s0,0,.06,0a.3.3,0,0,1,.11.26,2,2,0,0,1,0,.25s0,.07,0,.09a.59.59,0,0,1,.11.36.68.68,0,0,1,0,.15.35.35,0,0,0,.09-.3s0,0,0,.07a4.64,4.64,0,0,1,0,.64.39.39,0,0,1-.08.2s0,0,0,.06,0,.13,0,.19l-.21.45c0,.05,0,.09,0,.13a.05.05,0,0,1,0,.08s0,0,0,0a2.38,2.38,0,0,0-.23.55l0,.08-.2-.14c-.06,0-.07,0-.09,0a1.06,1.06,0,0,0,0,.31c0,.05,0,.11,0,.17a.33.33,0,0,1-.07.13s0,0-.07,0a.07.07,0,0,1,0-.07c0-.15,0-.3,0-.45s0,0,0-.05h0c-.07.11-.23.17-.2.35s.07,0,.1,0a.76.76,0,0,1-.15.37.42.42,0,0,1-.34.12s0,0,0-.06-.07-.06-.11-.07a.09.09,0,0,0-.12.05s0,.07-.05.1-.07.08-.14.06l-.1-.05a.07.07,0,0,0-.09,0,.24.24,0,0,0,0,.08s0,.05,0,.08a.17.17,0,0,0-.2-.06s-.08,0-.11,0a.2.2,0,0,0-.15,0,.21.21,0,0,1-.2,0,.56.56,0,0,0,0,.13s0,.05,0,.05-.06,0-.06,0a.39.39,0,0,0-.08-.1c0-.06,0-.13,0-.21s0,0,0,0l-.22-.13c-.1,0-.12,0-.15.07s0,.08,0,.12.06-.05.12-.06,0,.28-.08.42a.34.34,0,0,1-.12-.12.18.18,0,0,0-.17-.06.29.29,0,0,0-.25.12l0,0a3.4,3.4,0,0,1-.07-.34.65.65,0,0,1-.26.26.26.26,0,0,1,.07.18.07.07,0,0,1,0,.07A.08.08,0,0,1,51.6,18l0-.11s0,0,0,0a0,0,0,0,1-.06,0,.66.66,0,0,1-.15-.14.09.09,0,0,1,0-.13,1.05,1.05,0,0,0-.31,0h-.08s-.06,0-.06,0,0-.06-.09-.06h-.1a.1.1,0,0,0-.1.07s0,0,0,0,0,0-.07,0,0,0,0-.05,0-.1,0-.15-.08.09-.13.13A2.78,2.78,0,0,0,50,17.3l-.09-.09a.08.08,0,0,0-.08,0c-.08,0-.12,0-.06.11a.83.83,0,0,1,.07.13v0h-.15a.19.19,0,0,0-.1,0,.11.11,0,0,0-.06.14.74.74,0,0,0,.1.22.23.23,0,0,1,0,.14,2.29,2.29,0,0,0,.24,1,1.54,1.54,0,0,1,.08.19.89.89,0,0,1,.07.36.1.1,0,0,0,.07.11.83.83,0,0,0,.35.14.33.33,0,0,1,0,.12.4.4,0,0,0,0,.15c0,.09,0,.1.09.13s.1.05.09.13,0,0,0,.05.09.17.11.26,0,.08,0,.12a.22.22,0,0,0,.12-.05.12.12,0,0,1,.16,0l.2.17.36.37a.2.2,0,0,0,.35-.08S51.94,21.11,52,21.09Zm-.63-8h0c-.06,0-.09,0-.12,0a.33.33,0,0,1-.17.16.27.27,0,0,0,.11.16l0,0a.13.13,0,0,1,0,.15c-.28.28-.57.55-.86.82a.35.35,0,0,0-.12.19,1.66,1.66,0,0,1-.3.71.11.11,0,0,0,0,.11.54.54,0,0,1-.1.41.47.47,0,0,0-.09.22,2.7,2.7,0,0,0,0,.75.08.08,0,0,0,0,.08.88.88,0,0,0,.2-.54.24.24,0,0,1,0-.16s0,.07.05.09,0,0,0,0,0,0,0,0,0-.12-.05-.17,0,0,0-.05a2,2,0,0,1,.06-.26c0-.05,0-.06.09,0s.28.11.42.17a1.09,1.09,0,0,1,.34.17.54.54,0,0,0,.27.11,2.34,2.34,0,0,1,.63.21.22.22,0,0,0,.16,0,.19.19,0,0,1,.13,0l.13.06a.12.12,0,0,0,.1,0,2.29,2.29,0,0,1,.56-.18,1.34,1.34,0,0,0,.27-.07c0-.07,0-.13,0-.19a0,0,0,0,1,.06,0s0,0,0,0,0,.08,0,.11,0,.07.07.07h.19c.1,0,.1,0,.08.09s-.05.2-.07.3,0,0,0,.05a.07.07,0,0,0,.06,0l0-.1a2.86,2.86,0,0,0,.07-.28s0-.08.06-.1A.46.46,0,0,0,54,16l.3-.41a.36.36,0,0,1,.16-.14.07.07,0,0,1,.1,0,.15.15,0,0,0,.2,0,.25.25,0,0,1-.13-.26,2.42,2.42,0,0,1,.06-.46c0-.12,0-.12.14-.12a.05.05,0,0,1,0,0c0,.11-.08.24,0,.33a.47.47,0,0,0,0-.16.45.45,0,0,0-.16-.46s0-.08,0-.13a1.42,1.42,0,0,0,.08-.18c0-.18,0-.29-.17-.33h0c-.07-.06-.2-.09-.16-.23s0-.05,0-.05a1,1,0,0,1-.48-.11l-.26-.09a.42.42,0,0,0-.27,0c0-.06,0-.12,0-.18h0a1,1,0,0,1-.56.16.23.23,0,0,1-.2-.1.27.27,0,0,0-.34-.07.21.21,0,0,0,.1,0c.05,0,.07.07,0,.11a.18.18,0,0,1-.31-.06,1,1,0,0,1-.06-.25s0-.07-.07-.06-.06,0-.05.08,0,.24.05.37,0,.08-.07.07a.25.25,0,0,0-.26.07l0,0a.17.17,0,0,1-.1,0s0,0,0-.06a2,2,0,0,0-.1-.21Zm3.47,3.39c-.09,0-.1.14-.16.2l0-.06s0-.08-.07-.07,0,.07,0,.11a.08.08,0,0,0,0,.07c.06,0,0,.06,0,.08l-.18.09a1.14,1.14,0,0,1,.23.42,1.07,1.07,0,0,1,.13-.38A.79.79,0,0,0,54.81,16.51Zm-1.1.4a.22.22,0,0,0,0,.23s0-.08,0-.08,0,0,0,.06a.1.1,0,0,0,0,.09.05.05,0,0,0,.06,0s0,0,0-.05,0-.15-.08-.17,0,0,0-.05S53.75,16.92,53.71,16.91Zm1.82-2.4c0,.06,0,.11,0,.14a0,0,0,0,0,.08,0,.19.19,0,0,0,0-.19,0,0,0,0,0-.08,0Zm-.48-.39c0,.08,0,.12.07.12s.07-.05.06-.12,0-.12-.07-.11S55.05,14.08,55.05,14.12Zm-5.51.5a.06.06,0,0,0,0-.07s-.06,0-.08,0a.14.14,0,0,0,0,.15,0,0,0,0,0,.05,0c.06,0,.07-.07.08-.12Zm5.94,1.44a.34.34,0,0,0,0-.15c0-.08,0-.08-.09-.06s-.06,0-.06,0,0,.07,0,.08S55.42,16,55.48,16.06Zm-.62-.76a.2.2,0,0,0,0-.12.06.06,0,0,0-.07,0s0,0,0,.07l0,.1s0,.07.07.06,0,0,0-.07Zm-5.53-.25V15s0-.06-.08-.06,0,0,0,.08v.06s0,.08.07.07S49.33,15.1,49.33,15.05Zm1.09-1a.15.15,0,0,0,0-.09s0,0-.07,0,0,0,0,.06a.28.28,0,0,0,0,.09s0,.07.07.06S50.42,14.13,50.42,14.09Zm1.18,2.43a.16.16,0,0,0,0-.12.05.05,0,0,0-.09,0,.2.2,0,0,0,0,.15.05.05,0,0,0,0,0,.07.07,0,0,0,.05,0A.1.1,0,0,0,51.6,16.52Zm-1,5.42c0-.05,0-.13-.07-.13a.13.13,0,0,0-.06.12.19.19,0,0,0,0,.07s0,0,0,0,.05,0,.05,0A.14.14,0,0,0,50.58,21.94Zm2.77-4.59a.21.21,0,0,0,0-.11l-.06,0a.05.05,0,0,0,0,.05.17.17,0,0,0,0,.14s0,0,0,0a0,0,0,0,0,0,0S53.34,17.36,53.35,17.35ZM55,15.94a.12.12,0,0,0-.05-.12s0,0,0,0a.12.12,0,0,0,0,.13s0,.08.07.07S55,16,55,15.94ZM51.3,21.13a.11.11,0,0,0,0,.15.06.06,0,0,0,.08,0,.08.08,0,0,0,0-.09S51.34,21.16,51.3,21.13ZM55,12.88s0-.05,0-.07,0-.05,0-.05,0,0,0,.05a.17.17,0,0,0,0,.1s0,.06.07.06S55,12.93,55,12.88Zm-1,4.46a.13.13,0,0,1,0,.06s0,.07.08.05.05-.05,0-.09L54,17.27s0,0-.07,0A.13.13,0,0,1,54,17.34ZM49.5,21.09h0v0c0,.06,0,.08.08.07a.06.06,0,0,0,0-.09l0-.06s0-.05-.05-.05,0,0,0,.07ZM53,12.79a.11.11,0,0,0-.06.13c0,.06,0,.08.08.07a.06.06,0,0,0,0-.09A.39.39,0,0,0,53,12.79Zm1.17-.4a.21.21,0,0,0,0,.2,0,0,0,0,0,0,0s0,0,0-.05A.25.25,0,0,0,54.13,12.39Zm1.66,2.38a.19.19,0,0,0,0,.19,0,0,0,0,0,.07,0,.08.08,0,0,0,0-.08S55.82,14.81,55.79,14.77Zm-6.88.54a.43.43,0,0,0,0,0,.05.05,0,0,0,.06.06s.06,0,.05-.08a.14.14,0,0,0-.05-.1s0,0-.06,0Zm6.52-.15a.21.21,0,0,0,0,.2s0,0,0,0,0,0,0,0S55.47,15.23,55.43,15.16Zm-6,5.84a.31.31,0,0,0,0,.21.05.05,0,0,0,0,0,.05.05,0,0,0,0,0C49.48,21.12,49.44,21.07,49.39,21Zm4.33-8.06a.14.14,0,0,0,0,.2h0a0,0,0,0,0,0,0A.31.31,0,0,0,53.72,12.94Zm-1.33-.65a.15.15,0,0,0,0,.14s0,.06,0,.06a.06.06,0,0,0,.05-.08A.25.25,0,0,0,52.39,12.29Zm-3.88,7.19a.21.21,0,0,0,0,.17s0,.06.06.05.05-.05,0-.08A.31.31,0,0,0,48.51,19.48Zm.05-1.41a.19.19,0,0,0,0,.14s0,.06,0,.06a.06.06,0,0,0,.05-.08A.25.25,0,0,0,48.56,18.07Zm2.94-.6c0,.05,0,.1,0,.15a0,0,0,0,0,0,0s0,0,0-.06A.19.19,0,0,0,51.5,17.47Zm-2.61-2.63a.16.16,0,0,0,0,.2s0,0,0,0l0,0A.33.33,0,0,0,48.89,14.84Zm1.56-2a.13.13,0,0,1,0,.06.05.05,0,0,0,.06,0s0,0,0-.06a.13.13,0,0,0,0-.11s0,0,0,0A.43.43,0,0,0,50.45,12.87Zm-1.94,6.27a.07.07,0,0,0-.06,0s-.06,0-.05.06a.05.05,0,0,0,0,.06s0,0,.05-.06S48.5,19.16,48.51,19.14Zm-.09-1.41a0,0,0,0,0,0,.06s0,.05,0,0,0,0,0,0S48.45,17.73,48.42,17.73Zm6.19-1.4a.1.1,0,0,0,0,.09s0,0,0,0,0,0,0,0S54.64,16.34,54.61,16.33Zm1,5.94a.12.12,0,0,0,0-.16A.43.43,0,0,0,55.63,22.27Zm-.49-7.67s0,0,0,0,0-.07,0-.08a0,0,0,0,0,0,0S55.1,14.59,55.14,14.6Zm-5.2,6.82s0,0,0,0,0,.05.06.05,0,0,0,0S50,21.43,49.94,21.42Zm.84-8.33a0,0,0,0,0,0,0s0,0,0,.05h0a.07.07,0,0,0,0-.06Zm-2.26,4.42s0,0,0,0,0,0,0,0,0,0,0,0S48.5,17.5,48.52,17.51Zm5-5s0-.05,0-.05,0,0,0,0,0,0,0,0S53.5,12.57,53.5,12.56Zm-2.27,4.72h0s0,0,0,0,0,0,0,0S51.24,17.28,51.23,17.28Zm1.12-5.2s0,0,0,0h0a.05.05,0,0,0,0,0S52.35,12.09,52.35,12.08ZM55,14s0,0,0,0,0,0,0,0,0,0,0,0S55,14,55,14Zm-6.5,3.09s0,0,0,0a0,0,0,0,0,0,0,0,0,0,0,0,0,0S48.5,17.13,48.51,17.12Z"/><path d="M101.84,21.66s.07-.05.1-.08a.08.08,0,0,1,.11,0l.11,0a.29.29,0,0,0,.35-.07s0-.05.08-.05a1.16,1.16,0,0,1,.32,0,.13.13,0,0,1,.09.07.1.1,0,0,0,.12,0c.33-.09.65-.21,1-.31a.11.11,0,0,1,.12,0,.76.76,0,0,0,.67.08.11.11,0,0,0,.07-.08s0,0,.09,0l-.3.59s0,0,0,0,0-.06-.08,0,0,0,0,.08a.15.15,0,0,0,0,.09s0,.06,0,.06l-.1,0a.26.26,0,0,0,0,.12.14.14,0,0,1,0,.15s0,.05,0,.08,0,.1,0,.16,0,.05,0,.05,0,0-.07,0,0-.07,0-.1-.09,0-.14,0-.11-.08-.19-.07,0,0,0-.05a.75.75,0,0,1-.07-.12s0,.05-.09.06,0-.08,0-.12,0-.05,0-.05,0,0,0,.05,0,.08,0,.11,0,.11,0,.15a.06.06,0,0,1,0,0s0-.05-.08-.06h0c0,.05,0,.13,0,.16s-.11,0-.17,0h0c-.19,0-.24,0-.26.17s0,0-.07.06,0-.06,0-.1l-.38.06a.22.22,0,0,1-.18,0l-.11-.07a.33.33,0,0,0-.4,0l-.24.1a.41.41,0,0,1-.19.05s0-.1-.05-.14l-.26.08a.55.55,0,0,1-.43-.06.24.24,0,0,0-.11-.06,2.37,2.37,0,0,1-.36-.09.06.06,0,0,0-.07,0l-.07.06a.41.41,0,0,0-.24-.19l-.36-.14s0,0,0,0-.15,0-.22-.06L99,22a.27.27,0,0,1-.15-.18l0-.1a.13.13,0,0,1-.17,0l-.08,0a.11.11,0,0,1-.08-.12c0-.15,0-.3-.06-.47-.09.13-.12.25-.2.37L98,21.3l-.15-.17c-.06-.05-.1-.11,0-.18s0,0-.06,0a.14.14,0,0,1-.11-.05c0-.07-.11-.12-.16-.18a.53.53,0,0,1-.11-.21,5,5,0,0,0-.35-.83.25.25,0,0,1,0-.24.19.19,0,0,0,0-.19.61.61,0,0,1-.1-.33.09.09,0,0,1,.06-.12l-.08-.09a.34.34,0,0,0,.11-.23.15.15,0,0,0,0-.13.44.44,0,0,1-.09-.18s0-.07,0-.1,0-.07,0-.11l-.1-.14s0-.05,0-.06a.05.05,0,0,0,0-.06.22.22,0,0,0,0-.08c0-.07,0-.13.07-.18s.08-.09.12-.15-.06-.08-.06-.14,0,0,0-.05a.18.18,0,0,1,0-.2.65.65,0,0,0,.06-.21,5.61,5.61,0,0,0,0-.58.08.08,0,0,1,.07,0,.07.07,0,0,0,0-.13.17.17,0,0,1-.06-.11.28.28,0,0,0,0-.09c-.08-.17,0-.32.07-.48h0s0,.07,0,.11,0,.07.11.07a.22.22,0,0,1,0-.22l0-.12a.27.27,0,0,0-.06-.33l.16,0c.07,0,.1-.05.12-.12l.09-.4s0-.07,0-.08a.09.09,0,0,0,0-.09.36.36,0,0,1,0-.11,1.36,1.36,0,0,1,0,.6v0a0,0,0,0,0,.05,0,.37.37,0,0,0,.14-.31c0-.07,0-.13,0-.2a.26.26,0,0,1,.11-.3l.28-.25a.22.22,0,0,1,.17-.1s0,0,.06,0l.08-.07,0,0c0,.05,0,.06.08,0l.12-.18s-.08,0-.11,0,0-.06,0-.08l.25-.54c.08.05.12.14.2.19a.55.55,0,0,1,.15-.19s.08-.08.14,0,0-.11,0-.16a.06.06,0,0,1,.08,0h.05c.08,0,.14,0,.16-.09a.21.21,0,0,1,.14-.12,1.09,1.09,0,0,1,.36-.12.13.13,0,0,1,.14,0l.08.09,0,.05a.17.17,0,0,0,.14,0s0-.07,0-.1-.06-.13,0-.2.14-.09.26,0l.15.15s0,0,0,0,0-.19,0-.3.16.12.26.16,0-.19,0-.3a.26.26,0,0,1,.12.11c.05.09.11.17.17.26s.06.06.12,0a.81.81,0,0,0,.21-.1s0,0,0,0a.44.44,0,0,0,.17.32c.07.07.1.07.17,0s0,0,0,0a.31.31,0,0,1,0,.19,0,0,0,0,1,0,0s-.07,0-.05.09,0,.15.11.2.06-.2.08-.29a.34.34,0,0,1,.44-.2s0,.07.08.06.12.08.15.14a.46.46,0,0,0,.08.13c.09.06.16.05.26,0a.4.4,0,0,1,0,.15,2.14,2.14,0,0,0,.06.35c0,.08,0,.09.13.13s0-.2,0-.3,0,0,0,.06,0,.07.09.09a.41.41,0,0,1,.14.2c0,.13.08.26.11.39s0,0,0,.05.11-.12.12-.22,0,0,.07,0a.31.31,0,0,1,.11.23,1.77,1.77,0,0,1,0,.23.19.19,0,0,0,0,.18.4.4,0,0,1,.08.23l0,.23c.11-.08.07-.2.09-.3a.07.07,0,0,1,0,.08,3.65,3.65,0,0,1,0,.66.42.42,0,0,1,0,.12c0,.06-.08.11,0,.19s0,0,0,.08l-.24.5a.07.07,0,0,0,0,.11.07.07,0,0,1,0,.09,2.3,2.3,0,0,0-.27.67c-.08,0-.13-.1-.19-.13s-.09,0-.12.05a1.57,1.57,0,0,0,0,.37.41.41,0,0,1-.09.23s0,0-.07,0a.07.07,0,0,1,0-.06,2.27,2.27,0,0,1,0-.45s0-.05,0-.06a.05.05,0,0,0,0,0,.86.86,0,0,1-.13.14.14.14,0,0,0-.05.08c0,.11,0,.12.09.11a.06.06,0,0,1,0,.07,2.34,2.34,0,0,1-.09.24.42.42,0,0,1-.4.19.05.05,0,0,1,0,0c0-.08-.08-.07-.13-.08s-.09,0-.11.07-.09.16-.27.1-.08,0-.11,0l0,.15a.2.2,0,0,0-.23,0s-.06,0-.09,0a.23.23,0,0,0-.16,0,.2.2,0,0,1-.2-.05c0,.06,0,.09,0,.13a.05.05,0,0,1,0,.06.05.05,0,0,1-.07,0s0-.06-.07-.09a.21.21,0,0,1,0-.24,1.43,1.43,0,0,0-.27-.15c-.06,0-.1,0-.11.05s-.06.1,0,.15.06-.06.12-.07l-.08.43a.5.5,0,0,1-.13-.12.16.16,0,0,0-.16-.06.28.28,0,0,0-.25.12.07.07,0,0,1-.06,0l0-.3s0,0,0,0a.35.35,0,0,1-.18.18s0,0,0,.08a.15.15,0,0,1,0,.13s0,.06,0,.07a.1.1,0,0,1-.07,0s0-.09,0-.12,0,0,0,0a0,0,0,0,1-.07,0l-.1-.09c-.05-.05-.11-.11,0-.19l-.37.05s-.09,0-.1-.06a.05.05,0,0,0,0,0h-.1a.11.11,0,0,0-.14.09s0,.05-.07.05,0,0,0-.06l0-.14c-.06,0-.08.1-.14.12s-.21-.25-.31-.37a.17.17,0,0,0-.21,0l.12.24h-.16a.29.29,0,0,0-.1,0,.11.11,0,0,0-.06.14.62.62,0,0,0,.1.22.23.23,0,0,1,0,.14,2.6,2.6,0,0,0,.07.56,1.62,1.62,0,0,0,.15.42,1.75,1.75,0,0,1,.12.32.57.57,0,0,1,0,.26.14.14,0,0,0,.09.14.93.93,0,0,0,.34.13l0,.12a.38.38,0,0,0,0,.1c0,.12,0,.14.11.18a.1.1,0,0,1,.07.11.09.09,0,0,0,0,.08.23.23,0,0,1,.08.18.5.5,0,0,1,0,.12c0,.08,0,.09.1,0a.17.17,0,0,1,.25,0,3.87,3.87,0,0,1,.41.4l.1.1c.06.08.14.07.22.06a.15.15,0,0,0,.1-.09s0-.08.05-.13a.26.26,0,0,0,.15.07c.07,0,.13,0,.13.12a.05.05,0,0,0,0,0,.91.91,0,0,0,.22.11c.19,0,.37.08.56.09a.12.12,0,0,1,.08.06S101.81,21.65,101.84,21.66Zm-1.62-5.29.16.06a.21.21,0,0,0,.17,0,.17.17,0,0,1,.12,0l.12.05a.12.12,0,0,0,.13,0,2.28,2.28,0,0,1,.44-.15l.37-.08a.43.43,0,0,0,0-.11.13.13,0,0,1,0-.1s.06,0,.08,0a.2.2,0,0,1,0,.13c0,.05,0,.06,0,.06h.25s.07,0,.06.07a2.86,2.86,0,0,0-.07.28s0,.08,0,.09.07,0,.08-.06a.58.58,0,0,0,.05-.14,1.46,1.46,0,0,0,0-.2.09.09,0,0,1,.06-.09.41.41,0,0,0,.24-.19c.11-.16.22-.31.34-.46a.44.44,0,0,1,.15-.12.08.08,0,0,1,.1,0,.12.12,0,0,0,.19,0,.22.22,0,0,1-.12-.22,2.78,2.78,0,0,1,.07-.57s0,0,0,0h.12c0,.25,0,.25,0,.34a.52.52,0,0,0-.06-.57l0-.05s0-.08,0-.13a.61.61,0,0,0,0-.12.39.39,0,0,0,0-.18.18.18,0,0,0-.13-.19.56.56,0,0,1-.2-.11.14.14,0,0,1-.06-.13.09.09,0,0,0,0-.07.86.86,0,0,1-.44-.08l-.25-.1a.6.6,0,0,0-.35-.05c0-.06,0-.13,0-.18a1.3,1.3,0,0,1-.55.16.23.23,0,0,1-.22-.1.28.28,0,0,0-.34-.07s0,0,0,0l0,0s.07.06,0,.1a.27.27,0,0,1-.19.08.15.15,0,0,1-.12-.11,1.31,1.31,0,0,1-.06-.27s0-.07-.06-.06-.07,0-.06.07,0,.06,0,.09,0,.24,0,.35a.1.1,0,0,1-.09,0,.21.21,0,0,0-.24.07s-.06,0-.11,0a0,0,0,0,1,0,0,1.24,1.24,0,0,0-.1-.2c0-.1-.12-.11-.18,0s-.06.12-.14.14a0,0,0,0,0,0,0c0,.05,0,.1.07.13s.08.12,0,.19l-.31.3-.6.57a.15.15,0,0,0-.06.09,1.81,1.81,0,0,1-.32.77s0,0,0,.09a.51.51,0,0,1-.1.43.77.77,0,0,0-.1.25,3.5,3.5,0,0,0,0,.65.18.18,0,0,0,0,.14.89.89,0,0,0,.19-.51.32.32,0,0,1,0-.19l0,.08a0,0,0,0,0,.05,0s0,0,0,0,0-.11,0-.14a.13.13,0,0,1,0-.13.65.65,0,0,1,0-.2c0-.07,0-.07.1,0l.4.15a1.35,1.35,0,0,1,.34.17.8.8,0,0,0,.36.14.9.9,0,0,1,.39.13c-.08,0-.09,0-.09.08v.07s0,.07.07.06,0,0,.06-.07S100.23,16.42,100.22,16.37Zm3,.18c0,.09,0,.16,0,.21s0,.06,0,.08l-.18.09a1,1,0,0,1,.21.38s0,0,0,0a1.48,1.48,0,0,1,.1-.27,1.22,1.22,0,0,0,.07-.17.85.85,0,0,0,0-.32c-.1,0-.1.15-.17.2A1,1,0,0,0,103.21,16.55Zm-5.16-1.88s0,.08,0,.09.07,0,.09-.06,0-.09,0-.13a.06.06,0,0,0-.07,0A.11.11,0,0,0,98.05,14.67Zm6.26-.09a.16.16,0,0,0,0-.13.05.05,0,0,0-.08,0,.21.21,0,0,0,0,.19l.06,0a.05.05,0,0,0,0-.05Zm-.48-.44a.28.28,0,0,0,0-.09.07.07,0,0,0-.06,0s0,0,0,0a.26.26,0,0,0,0,.15.05.05,0,0,0,.06,0,0,0,0,0,0,0-.05Zm-.31,1.15a.28.28,0,0,0,0-.13.07.07,0,0,0-.06,0s0,0,0,0a.24.24,0,0,0,0,.16s.06,0,.07,0A.11.11,0,0,0,103.52,15.29Zm.63.78a1.57,1.57,0,0,0,0-.16c0-.08,0-.08-.09-.06s-.06,0-.07,0,0,.08,0,.09S104.08,16,104.15,16.07Zm-.54-.14s0-.08-.06-.11,0,0,0,0a.15.15,0,0,0,0,.13.07.07,0,0,0,.06.07C103.61,16,103.61,16,103.61,15.93ZM102,17.34v0a.09.09,0,0,0-.08-.08c-.06,0,0,.06,0,.1a.43.43,0,0,1,0,.05s0,.07.08.06S102,17.38,102,17.34Zm-2.83,4.47c-.07,0-.06.1-.06.16s0,.06.06.06,0,0,.06-.06A.16.16,0,0,0,99.17,21.81Zm4.49-8.93s0-.09-.06-.12h0a.13.13,0,0,0,0,.13s0,.08.08.07S103.66,12.92,103.66,12.88Zm-4.58,1.19s0,0,0-.06A.07.07,0,0,0,99,14s0,0,0,.07a.17.17,0,0,0,0,.07s0,.07.06.07S99.08,14.13,99.08,14.07ZM98,15A.25.25,0,0,0,98,15a.07.07,0,0,0-.06,0,.05.05,0,0,0,0,.06.17.17,0,0,0,0,.12,0,0,0,0,0,.06,0,0,0,0,0,0,0,0A.11.11,0,0,0,98,15Zm4.67,2.21h0s0,.17,0,.19a0,0,0,0,0,.06,0,.24.24,0,0,0-.06-.17ZM98.2,21h0a.17.17,0,0,0,0,.17s0,0,.06,0a.08.08,0,0,0,0,0,.31.31,0,0,0-.06-.16Zm1.76.13c-.06.08-.07.12,0,.17a.06.06,0,0,0,.08,0s0,0,0-.08A.56.56,0,0,0,100,21.12Zm-2.39-5.8v0c0,.05.05.08.08.07a.08.08,0,0,0,0-.1l0-.07s-.05,0-.07,0A.13.13,0,0,0,97.57,15.32ZM98.05,21a.24.24,0,0,0,0,.18.06.06,0,0,0,.06.06.07.07,0,0,0,0-.07A.33.33,0,0,0,98.05,21Zm6-5.83a.17.17,0,0,0,0,.19,0,0,0,0,0,0,0s0,0,.05,0S104.13,15.23,104.09,15.17Zm-2.48-2.38a.12.12,0,0,0,0,.14s0,.07.07.06a.06.06,0,0,0,.05-.08A.25.25,0,0,0,101.61,12.79Zm.86,4.24a.35.35,0,0,1,0,.11.08.08,0,0,0,0,.1s0,0,.05,0A.17.17,0,0,0,102.47,17Zm-.11-4.11a.17.17,0,0,0,0,.19s0,.05.06,0a.06.06,0,0,0,0-.07A.43.43,0,0,0,102.36,12.92Zm.43-.53a.22.22,0,0,0,0,.19,0,0,0,0,0,0,.05.06.06,0,0,0,0-.06C102.87,12.5,102.83,12.46,102.79,12.39Zm-5.62,7.09a.17.17,0,0,0,0,.18.07.07,0,0,0,.06,0s0,0,0-.06A.28.28,0,0,0,97.17,19.48Zm.37-4.64a.19.19,0,0,0,0,.19s0,0,0,0,0,0,0-.05A.33.33,0,0,0,97.54,14.84Zm-.32,3.23a.13.13,0,0,0,0,.14s0,.07,0,.06.05-.05,0-.09A.41.41,0,0,0,97.22,18.07Zm7.23-3.31a.18.18,0,0,0,0,.17s0,.06,0,.05a.05.05,0,0,0,.05-.07A.36.36,0,0,0,104.45,14.76Zm-2,2.37s0-.07,0-.12a.14.14,0,0,0-.07-.1A.2.2,0,0,0,102.4,17.13Zm-3.27-4.35a.23.23,0,0,0,0,.14,0,0,0,0,0,0,.05.06.06,0,0,0,0-.08A.17.17,0,0,0,99.13,12.78Zm1.92-.49a.17.17,0,0,0,0,.15s0,.06,0,.05.05,0,0-.07A.3.3,0,0,0,101.05,12.29Zm-.92,5.26a.2.2,0,0,0,0,.07.06.06,0,0,0,.06,0,.05.05,0,0,0,0-.07.17.17,0,0,0-.06-.11,0,0,0,0,0,0,0A.13.13,0,0,0,100.13,17.55Zm-3,1.58s-.06,0-.08,0,0,0,0,0,0,.05,0,.07,0,0,0,0S97.17,19.17,97.16,19.13Zm0-1.33s0-.08-.06-.07,0,0,0,0,0,.06,0,.07A0,0,0,0,0,97.13,17.8Zm1.49,3.71a0,0,0,0,0,0,0s0-.06-.06-.06,0,0,0,0A.06.06,0,0,0,98.62,21.51Zm5.21-7s0-.06,0-.05,0,0,0,0,0,0,0,0S103.83,14.59,103.83,14.56Zm-6.62,2.91s0,0,0,0a0,0,0,0,0,0,0,0,0,0,0,0,0,0S97.2,17.49,97.21,17.47Zm6.06-1.13s0,.07,0,.1S103.3,16.37,103.27,16.34Zm-3.83-3.25a.05.05,0,0,0,0,.08h0S99.47,13.11,99.44,13.09Zm2.7-.57s0,0,0,0a0,0,0,0,0,0,.05s0,0,0,0S102.15,12.52,102.14,12.52Zm1.34.65s0,0,0,0,0,0,0,0,0,0,0,0S103.48,13.19,103.48,13.17Zm.19.86s0,0,0,0,0,0,0,0,0,0,0,0S103.67,14,103.67,14Zm.63,8.23a.15.15,0,0,0,0-.13A.12.12,0,0,0,104.3,22.26ZM101,12.05s0,0,0,0,0,0,0,0,0,0,0,0Z"/><path d="M86.8,23.6s0,0-.07-.05a.09.09,0,0,0-.1,0s0,.05,0,.07a.37.37,0,0,1-.06.33c0-.08-.07-.16-.11-.23s-.06-.12-.15-.11-.06,0-.08-.05-.06,0-.09,0,0,.06,0,.09,0,0,0,0,.06.18-.06.24a.19.19,0,0,1-.1-.2.57.57,0,0,0,0-.13.09.09,0,0,0-.07-.1.32.32,0,0,0,0,.14,2.05,2.05,0,0,1-.07.34c0,.08,0,.08-.13.09a.3.3,0,0,0-.16,0,.06.06,0,0,0,0,.05c0,.06,0,0-.09,0s0-.09,0-.14-.15-.17-.21-.27a.25.25,0,0,0,.12-.22.65.65,0,0,1,.06-.24c0-.05,0-.07,0-.11a1,1,0,0,0-.16-.12L85,22.92a.37.37,0,0,1-.09-.2s0-.09,0-.12.06-.07.07-.11a.67.67,0,0,1,.22-.43.16.16,0,0,0-.22,0,.61.61,0,0,0-.19.35s0,0,0-.05a1.62,1.62,0,0,1,0-.22c0-.08,0-.16.11-.21-.16,0-.33,0-.41-.18,0,.1,0,.16,0,.23s-.06-.13-.13-.18V22a.07.07,0,0,1,0,.07s-.06,0-.07,0a.11.11,0,0,1,0-.11s0-.05.06-.09a.24.24,0,0,0-.25.12.13.13,0,0,1-.14.1c-.07,0-.12.06-.17.09s0-.07-.06-.08a.24.24,0,0,0-.12,0s0,.06-.1.05,0,0,0,0l-.08.12a.22.22,0,0,1-.36,0,.11.11,0,0,0-.12-.05h-.14c-.18,0-.23,0-.3-.16a.28.28,0,0,0-.08.15c0,.1,0,.11-.15.11a.76.76,0,0,1-.21,0l-.3-.09a.59.59,0,0,1-.46-.46.27.27,0,0,0-.1-.16c-.11.07-.08.21-.16.3-.07-.08-.17-.15-.19-.27l-.12.06a.13.13,0,0,1-.18,0,.12.12,0,0,0-.1-.06.4.4,0,0,1-.23-.12l-.3-.4a.14.14,0,0,1,0-.15c0-.05,0-.08-.06-.08s-.07,0-.07-.06a.68.68,0,0,0-.1-.27,1.54,1.54,0,0,1-.11-.3s0-.07,0-.08a.21.21,0,0,0,.14-.26v-.05c-.07,0-.11.05-.17.06s0-.16,0-.24,0,0-.06,0a.1.1,0,0,1-.11,0L79,19.44a.17.17,0,0,1-.06-.2A.78.78,0,0,0,79,19a.33.33,0,0,0,0-.14s0-.05,0-.06.06-.17.07-.26-.09.06-.16.07a7.18,7.18,0,0,0,.27-.73c-.1,0-.17.06-.25.08s-.14.07-.22.1l.14-.26c-.14,0-.15,0-.14-.18a1.37,1.37,0,0,1,0-.19v0s.07.06.12,0,0-.08,0-.12,0-.07-.11-.06a1,1,0,0,1,.08-.24s0-.08,0-.11a.08.08,0,0,1,0-.12l0-.06a.12.12,0,0,0,0-.17.22.22,0,0,1,.11-.3l0,.35h0c0-.11,0-.23.08-.34a.25.25,0,0,0,0-.21.58.58,0,0,1-.06-.29,3.85,3.85,0,0,0,0-.48s0,0,0,0a.21.21,0,0,0,.16-.21l0-.13s.07,0,.1,0a1,1,0,0,0,.13-.16.05.05,0,0,0,0,0l0-.06c-.06-.05,0-.11,0-.17s-.1-.07-.1-.14a.28.28,0,0,1,0-.09.94.94,0,0,1,0-.16.24.24,0,0,0-.07-.31l.12-.16a.41.41,0,0,0,.07-.15c0-.08,0-.17.13-.2l0,0c0-.1.11-.1.2-.11a1.22,1.22,0,0,1,.59.17.1.1,0,0,1,.05.1c0,.25,0,.5,0,.75s-.08.72-.11,1.09a10.73,10.73,0,0,0,0,1.27,4.7,4.7,0,0,1,0,.75.67.67,0,0,0,0,.28.44.44,0,0,1,0,.3.33.33,0,0,0,0,.24,2.33,2.33,0,0,1,.07.53,2.09,2.09,0,0,0,.39,1,5.07,5.07,0,0,0,.52.61.43.43,0,0,0,.17.13s0,0,0,.07a.5.5,0,0,0,0,.13c.14,0,.19.05.23.15a.61.61,0,0,0,0,.12s.06.05.11,0l.05,0s.07,0,.1,0a.65.65,0,0,1,.16.21c0,.06,0,.1,0,.16a.23.23,0,0,0,.25-.06,0,0,0,0,1,0,0c0,.1,0,.1.11.09l.16,0a.16.16,0,0,1,.2.09c0-.1.08-.1.14-.09a1.61,1.61,0,0,0,.49-.06.9.9,0,0,0,.27-.11,1.35,1.35,0,0,1,.38-.19.42.42,0,0,0,.16-.09.21.21,0,0,1,.18-.08s0,0,0,0a.39.39,0,0,1,.11-.22.51.51,0,0,0,.08-.29,1.82,1.82,0,0,0,0-.33,1.74,1.74,0,0,1,.08-.5l0-.09a1,1,0,0,1-.13-.09.1.1,0,0,1,0-.15.51.51,0,0,0,.06-.4.26.26,0,0,1,0-.15,3,3,0,0,0,.1-.43s0-.05,0-.08a.12.12,0,0,1,0-.14.06.06,0,0,1,.06,0,.05.05,0,0,1,.06,0l0,.08s0-.07,0-.1a2.09,2.09,0,0,0-.15-.82.83.83,0,0,1-.1-.34.25.25,0,0,1,.06-.16s0,.07,0,.09a.06.06,0,0,0,.07,0s0,0,0-.05a.1.1,0,0,0-.08-.14v0c0-.09,0-.09,0-.15s-.18-.2-.06-.38a.15.15,0,0,0,0-.2.67.67,0,0,1-.07-.52c0-.07,0-.15.05-.23s0-.08.11-.09h.06c0-.05,0-.08-.07-.11a.21.21,0,0,1,0-.2,1.89,1.89,0,0,1,.09-.38s0,0,0,0,0-.06,0-.1,0-.3,0-.44v-.21s0-.05.06-.05a1.16,1.16,0,0,1,.52.11s0,0,.06,0a.38.38,0,0,1,.23.08c.18.13.18.13.18.36a.37.37,0,0,0,0,.11h.24s.06,0,.06.06,0,.2,0,.3a2.75,2.75,0,0,0,0,.41.92.92,0,0,1,0,.37.46.46,0,0,0,0,.38.35.35,0,0,1,0,.2l.12,1.63c0,.47.06.94.06,1.41a5.45,5.45,0,0,0,0,.7c0,.43,0,.86,0,1.29a.25.25,0,0,0,0,.08c.06.23.1.48.17.71a.25.25,0,0,1,0,.19.94.94,0,0,0,0,.47,4.5,4.5,0,0,1,.08.51,2.92,2.92,0,0,0,.1.4.65.65,0,0,1,0,.34A.93.93,0,0,1,86.8,23.6Zm-2-4.79s.08,0,.12,0,.06-.05.08-.09a.37.37,0,0,0,0-.31c0-.05-.06-.06-.09,0a.09.09,0,0,0,0,.06A1.31,1.31,0,0,1,84.81,18.81Zm-5.5.55s0,.05,0,.07,0,.07.08.06,0,0,0-.07a.24.24,0,0,0,0-.08s0,0,0-.06,0-.12,0-.18,0,0,0,0,0,0,0,.05,0,.07,0,.11S79.33,19.31,79.31,19.36Zm.58,1.19c0-.14,0-.27,0-.39s0,0-.07,0,0,0,0,.05a1.19,1.19,0,0,0,.05.26A.21.21,0,0,0,79.89,20.55ZM79,19.15a.22.22,0,0,0,0,.09.08.08,0,0,0,.09.05.08.08,0,0,0,0-.07.25.25,0,0,0,0-.12.06.06,0,0,0-.07,0s0,0-.06.05Zm6.43,3.32c0,.06,0,.08.07.08a.07.07,0,0,0,.08-.09c0-.06,0-.1-.08-.1S85.47,22.41,85.47,22.47Zm-6.07-8.7c0,.06,0,.08.07.09a.09.09,0,0,0,.09-.08c0-.07,0-.12-.09-.12S79.4,13.7,79.4,13.77Zm.09,4.46c0,.05,0,.08.06.08a.07.07,0,0,0,.08,0,.1.1,0,0,0,0-.09l0,0s-.06,0-.09,0A.14.14,0,0,0,79.49,18.23Zm5.44-1.92a.15.15,0,0,0,0,.06s0,.05.06.05a.08.08,0,0,0,0-.05s0-.07,0-.1,0-.07-.06-.06,0,.05,0,.08Zm.06,4c-.11.11-.12.13-.09.27C85,20.5,85,20.39,85,20.28Zm-6-2.59v0s0,.07.07.06a.06.06,0,0,0,0-.09s0,0,0-.06,0-.05,0-.05,0,0,0,.06A.06.06,0,0,0,79,17.69Zm7.81,5.67a.3.3,0,0,0-.07-.1s0,0,0,0a.09.09,0,0,0,0,.07.1.1,0,0,0,.06.09.06.06,0,0,0,.07,0A.05.05,0,0,0,86.78,23.36Zm-7-7.79a.06.06,0,0,0,0,.08s0,.09,0,.11a.08.08,0,0,0,.07-.08S79.77,15.57,79.74,15.57ZM79.6,17a.24.24,0,0,0,0,.08.06.06,0,0,0,.06,0,.07.07,0,0,0,0,0,.19.19,0,0,0-.07-.15l0,0S79.61,17,79.6,17Zm-.49.13v0s.06.08.09.06,0-.06,0-.09a.16.16,0,0,0,0-.07s0,0-.06,0S79.11,17.14,79.11,17.16Zm2,4.24c0,.07,0,.11.06.11s0,0,.06-.07,0-.11-.07-.12,0,0,0,0A.11.11,0,0,0,81.06,21.4ZM86,23v0s0,.06.07.05.06-.05,0-.09l0-.05s0-.05,0,0A.06.06,0,0,0,86,23Zm-.87-.1a0,0,0,0,0,0,0s0,.07.07.06.06-.05,0-.09a.1.1,0,0,0,0-.05s0-.05,0,0,0,0,0,.05S85.15,22.88,85.15,22.89Zm-6.22-5.54a.08.08,0,0,0,0,.07s0,0,.08,0,0,0,0-.07a.36.36,0,0,0,0-.09s0,0-.06,0A.13.13,0,0,0,78.93,17.35Zm5.46,4.26v0a.07.07,0,0,0,0,.07.05.05,0,0,0,.07,0,.06.06,0,0,0,0-.08.21.21,0,0,0,0-.06s0,0-.06,0A.11.11,0,0,0,84.39,21.61Zm-.12-.2,0,0a.14.14,0,0,0,0,.16s0,0,.06,0,0,0,0-.05a.19.19,0,0,0,0-.11ZM85,17.16a.2.2,0,0,0,0,.15,0,0,0,0,0,.06.05.05.05,0,0,0,0-.07A.2.2,0,0,0,85,17.16Zm.42-1.8h-.15c-.06,0,0,0,0,.07s0,0,0,0S85.34,15.43,85.37,15.36Zm-6,2.54a.23.23,0,0,0,0,.16s0,.05.06.05,0,0,0-.06A.21.21,0,0,0,79.36,17.9Zm6.07,4.66a.3.3,0,0,0,0,.18.06.06,0,0,0,.07,0,.05.05,0,0,0,0-.07A.56.56,0,0,0,85.43,22.56Zm-.05-.63a.3.3,0,0,0,0,.16s0,.06.06.05a.05.05,0,0,0,0-.07A.25.25,0,0,0,85.38,21.93Zm.05-8s0,.08,0,.12,0,.06.06.05a.05.05,0,0,0,0-.07S85.48,13.9,85.43,13.88Zm-.19-.13v0h.19c0-.11,0-.11-.09-.07ZM84,21.08a.08.08,0,0,0,0,.09H84a0,0,0,0,0,0-.06S84,21,84,21h0A.07.07,0,0,0,84,21.08Zm.86-5.91a.58.58,0,0,0,0-.23C84.74,15,84.74,15,84.82,15.17Zm-5.32.71a.63.63,0,0,0,.11-.13s0,0,0-.06,0,0,0,0A.6.6,0,0,0,79.5,15.88Zm5.49,0s.06.08.12.09,0,0,0,0A.14.14,0,0,0,85,15.89Zm1.14,5.7a.13.13,0,0,0-.07-.06,0,0,0,0,0-.06,0,.05.05,0,0,0,0,.05A.17.17,0,0,0,86.13,21.59ZM85,16.74c.08,0,.08,0,.16,0S85.07,16.7,85,16.74ZM85.08,15l0,0s0,0,0,0a0,0,0,0,0,0,0S85.07,15,85.08,15Zm-.37,6.68s0,0,0,0,0,0,0,0,0,0,0,.05S84.69,21.71,84.71,21.7Zm.1-6.24a0,0,0,0,0,0,0s0,0,0,0,0,0,0,0S84.78,15.46,84.81,15.46Zm-3.86,6s0-.06,0-.07,0,0,0,0S80.92,21.46,81,21.48Zm4-2h0s0,0,0,0h0s0,0,.06,0Zm-5.7-2.2s0,.07,0,.11A.08.08,0,0,0,79.27,17.31ZM79,17.1s0,0,0,0a0,0,0,0,0,0,0,.05.05,0,0,0,0,0S79,17.11,79,17.1Zm6.36,5.36s0-.05,0-.05,0,0,0,0S85.33,22.47,85.35,22.46Zm-2.19-.26s0,0,0,0,0,0,0,0,0,0,0,0S83.16,22.21,83.16,22.2Z"/><path d="M57.81,15.73a1.57,1.57,0,0,0,0-.43c0-.09.08-.12.14-.2v.82a.78.78,0,0,0,.09-.34v-.26a.2.2,0,0,1,.07-.19s0,.11.09.15a2.73,2.73,0,0,1,.1-.41.19.19,0,0,0,0-.2.7.7,0,0,1,.3-.12s0,0,0,0a.05.05,0,0,1,0,0c-.16.07-.2.23-.26.38a.38.38,0,0,0,.21,0c-.06-.1,0-.15.07-.21a.88.88,0,0,0,.24-.23c0-.06.08-.12,0-.19s0,0,0-.07.12-.2.18-.32l.08.28a.91.91,0,0,1,.09-.17c.06,0,0,.11.06.17a.21.21,0,0,0,.1-.13,1,1,0,0,0,0-.17.55.55,0,0,1,0-.18.17.17,0,0,1,.17-.14l.11,0a.18.18,0,0,1,.14,0,.39.39,0,0,0-.06.21s0,0,.06-.07.11-.2.17-.3,0-.08.1-.06.1,0,.1.12,0,.07.09.08.07,0,.08,0a.69.69,0,0,1,.05-.17s.11,0,.16,0,0,0,0,0,.15-.06.24-.06h.83c.06,0,.1,0,.13.06a.15.15,0,0,0,.14.07c.08,0,.08,0,.11.1a.84.84,0,0,0,.18-.15.17.17,0,0,0,.05-.12,8.36,8.36,0,0,1,0-1c0-.09,0-.09.09-.09h.36l.11,0,.35.18a.22.22,0,0,1,.1.09.39.39,0,0,1,.07.3.18.18,0,0,0,0,.17.11.11,0,0,1,0,.11,5.32,5.32,0,0,0-.05,1,.33.33,0,0,1,0,.19s0,.05,0,.07a.39.39,0,0,1,0,.21c0,.37,0,.73,0,1.1s0,.46-.07.69a5,5,0,0,0-.06.77v.68a1.17,1.17,0,0,0,0,.32c0,.1.09.18.21.19s0,.05,0,.07a1.28,1.28,0,0,0-.18.54,9.28,9.28,0,0,0-.06,1.06c0,.06,0,.14,0,.19s-.07.31,0,.46a.3.3,0,0,1,0,.18c0,.17,0,.34,0,.5s0,.08,0,.11a.12.12,0,0,0,.11,0c.09-.09.11-.08.16,0a.21.21,0,0,1,0,.19.41.41,0,0,1-.05.09c-.06.08-.06.08-.15,0a2.61,2.61,0,0,0,0,.28c0,.17,0,.34,0,.51a1.5,1.5,0,0,1-.06.29s0,.07,0,.1a.93.93,0,0,1,.07.46s0,.05,0,0a.28.28,0,0,1-.21-.1.23.23,0,0,0-.1-.07c-.06,0-.09,0-.08.07a1.89,1.89,0,0,0,0,.23c0,.05,0,.05.07.05h.37l-.29.47c0-.06,0-.14-.1-.2a.77.77,0,0,0-.12.28.17.17,0,0,1-.09-.17,2.08,2.08,0,0,0,0-.25.71.71,0,0,0-.28.41c0,.06,0,.12,0,.19a.61.61,0,0,1-.07.14c-.05.06-.1.06-.13,0s0-.06-.09-.06-.07-.06-.09-.11a.57.57,0,0,1,0-.29s0-.06,0-.06,0,0,0-.07a.33.33,0,0,0,0-.14A2.41,2.41,0,0,1,62,23c0-.23,0-.45,0-.68s0-.44-.05-.67c0,0,0-.09-.08-.09s0,0-.08-.07a.27.27,0,0,0-.07.08c0,.06-.07.12-.16.13s-.09.05-.12.09a1.27,1.27,0,0,0-.18.29l-.07.11a.1.1,0,0,1-.1.06H61a.37.37,0,0,0-.25.06c-.1.08-.13.06-.2,0s-.09-.14-.22-.06a.29.29,0,0,1-.16,0,.15.15,0,0,0-.15.06.21.21,0,0,1-.14.07.68.68,0,0,1-.42-.08.34.34,0,0,0-.22-.05.54.54,0,0,1-.22,0,.61.61,0,0,0-.18-.05.41.41,0,0,1-.25-.11l0,0a.22.22,0,0,1-.16-.12s0,0-.06,0c-.19,0-.28-.12-.36-.26s0-.07-.08-.07,0,0,0,0a.76.76,0,0,1-.08-.11s0-.07-.08-.06h0c0-.1-.14-.1-.18-.18l-.26-.41a.69.69,0,0,1-.09-.3c0-.15,0-.3-.07-.44s0-.13-.09-.15a.05.05,0,0,1,0-.06c0-.28,0-.55,0-.83,0,0,0-.06,0-.08a.29.29,0,0,0,0-.18v-.11a.13.13,0,0,1,.11-.15.17.17,0,0,0,.13-.15,1,1,0,0,0,0-.24s0,0-.05.05a1.49,1.49,0,0,1-.15.2.21.21,0,0,1-.1.06s-.06,0-.06,0a2.29,2.29,0,0,1,.09-.73.67.67,0,0,1,.3-.4.14.14,0,0,0,.07-.11.24.24,0,0,0,0-.08s0,0,.07,0a4.27,4.27,0,0,1,.14-.87.47.47,0,0,0,0-.24.23.23,0,0,1,0-.25,1.15,1.15,0,0,1,.14-.17.31.31,0,0,1,.11-.08.24.24,0,0,1-.11.26s0,.05,0,.1,0,.11.06.12.08-.07.11-.11,0,0,0-.06a.38.38,0,0,0,0,.15s0,0,0,0,0,0,0,0a.13.13,0,0,0-.06-.18ZM60,21.32a1.25,1.25,0,0,1,.06-.18s0-.06.06-.05.15,0,.18.13.07.13.19.1a1.18,1.18,0,0,0,.49-.27,6.67,6.67,0,0,0,.81-.95,1,1,0,0,0,.15-.33,1.45,1.45,0,0,0,.07-.35,1.33,1.33,0,0,0-.07-.71.29.29,0,0,1,0-.13V17s0,0,0,0h-.07c-.17,0-.17,0-.16-.18s0-.06.07-.06a.49.49,0,0,0,.2,0,.18.18,0,0,0,.1-.17c0-.12,0-.25,0-.38a.57.57,0,0,1,0-.18.28.28,0,0,0,0-.2.15.15,0,0,1,0-.09,3.19,3.19,0,0,1,.18-1.06s0,0,0-.07a.25.25,0,0,0-.16-.12c-.14,0-.17-.06-.2-.19s-.06.06-.11.08a.06.06,0,0,1,0,0s0,0,0,0l0,0a.93.93,0,0,1-.61.23.73.73,0,0,0-.29.07.87.87,0,0,1-.31.14h0a8.2,8.2,0,0,0-.82.46h0a.13.13,0,0,0-.05-.14.28.28,0,0,0,0,.18s0,0,0,.07l-.24.25s0-.08,0-.12,0-.05,0-.05a0,0,0,0,0,0,0,.23.23,0,0,0,0,.14.09.09,0,0,1,0,.11,1.53,1.53,0,0,1-.21.14c-.07,0-.08.14-.19.14l0,0a1.08,1.08,0,0,1-.11.3.06.06,0,0,0,0,.06.2.2,0,0,1-.12.2l-.17.1a.87.87,0,0,0-.21.17.33.33,0,0,0-.09.3.19.19,0,0,1,0,.13c-.06.13-.09.26-.14.4a.88.88,0,0,0,0,.33q0,.42,0,.84a.47.47,0,0,0,.08.29S58,19,58,19a.23.23,0,0,1,0,.14.46.46,0,0,0,0,.38c.12.23.23.47.33.71,0,0,0,0,.08.05s.12.08.09.17,0,0,0,0a.23.23,0,0,1,.18,0l.11.09.43.36a.19.19,0,0,0,.16.07.1.1,0,0,1,.07,0,.23.23,0,0,0,.22.1A.39.39,0,0,1,60,21.32Zm0,.2a.26.26,0,0,0-.21.09s0,.06,0,.06H60c.06,0,.07,0,.07-.09S60.08,21.52,60,21.52Zm-1.45-5.78s0,.07.06.06a.2.2,0,0,0,.14-.08s.05-.08,0-.12-.07,0-.11,0S58.59,15.67,58.59,15.74Zm3.66,1.4v.24s0,0,0,.05l.06,0a.77.77,0,0,0,.07-.16A.26.26,0,0,1,62.25,17.14Zm0,.4a.35.35,0,0,0,0,.19s0,0,0,0a.06.06,0,0,0,.06,0,.11.11,0,0,0,0-.08A.49.49,0,0,0,62.24,17.54ZM59.52,14.1a.18.18,0,0,0,0,.2s0,0,0,0,0,0,0,0A.22.22,0,0,0,59.52,14.1ZM63,15.92a.22.22,0,0,0,0,.2s0,.05.06,0,0,0,0-.05A.29.29,0,0,0,63,15.92Zm-.88,1.28a.26.26,0,0,0,0,.19s0,0,0,0,0,0,0,0,0,0,0-.08A.37.37,0,0,0,62.08,17.2Zm-3.74-1.83a.27.27,0,0,0,0,.2s0,0,.08,0a.07.07,0,0,0,0-.09A.19.19,0,0,0,58.34,15.37Zm1.24,6.21a.23.23,0,0,0-.06-.12h0a.11.11,0,0,0,0,.12s0,.08.06.07S59.57,21.62,59.58,21.58Zm3-7a.34.34,0,0,0,0,.1.05.05,0,0,0,0,0,.08.08,0,0,0,0,0c0-.05,0-.1,0-.15s0,0,0,0a0,0,0,0,0,0,0A.09.09,0,0,0,62.55,14.54Zm-.31,1.87a.17.17,0,0,0,0,.17s0,0,0,0a.05.05,0,0,0,0,0,.1.1,0,0,0,0-.09S62.28,16.43,62.24,16.41ZM61,14.09a.31.31,0,0,0,0,.21s0,0,.07,0a.1.1,0,0,0,0-.09A.66.66,0,0,0,61,14.09Zm0-.55a.3.3,0,0,0,0,.18s0,0,0,0,0,0,0,0,0-.05,0-.08A.39.39,0,0,0,61,13.54ZM57.85,17a.16.16,0,0,0,0,.16s0,.05,0,.05a0,0,0,0,0,0-.05C57.93,17.06,57.89,17,57.85,17Zm3.57-2.88a.29.29,0,0,0,0,.18s0,.06,0,.06.05,0,.05-.06A.26.26,0,0,0,61.42,14.09Zm.65-.11a.25.25,0,0,0,0,.17,0,0,0,0,0,0,0s0,0,0,0,0-.06,0-.08A.24.24,0,0,0,62.07,14Zm1,8.71a.17.17,0,0,1,0,.07.07.07,0,0,0,.06,0s0,0,0-.05a.19.19,0,0,0,0-.13l0,0a0,0,0,0,0,0,0S63.12,22.67,63.11,22.69Zm-.43-.1a.2.2,0,0,0,0,.16s0,.05,0,.05,0,0,.05-.05S62.71,22.65,62.68,22.59Zm-.6-4.71a.21.21,0,0,0,0,.17s0,0,0,0a.05.05,0,0,0,0,0,.09.09,0,0,0,0-.09A.28.28,0,0,0,62.08,17.88Zm.28,0a.58.58,0,0,0,0,.32A.33.33,0,0,0,62.36,17.89Zm-.55,3.2a.24.24,0,0,0,0,.2s0,0,0,0,0,0,0,0A.29.29,0,0,0,61.81,21.09Zm.7-4.12a.19.19,0,0,0,0,.16s0,.05,0,.05,0,0,0-.05S62.56,17,62.51,17Zm.56.68a.33.33,0,0,0,0,.17s0,0,0,0a0,0,0,0,0,0,0A.15.15,0,0,0,63.07,17.65Zm-2.35-4.26a.26.26,0,0,0,0,.21.05.05,0,0,0,0,0l0,0A.31.31,0,0,0,60.72,13.39ZM62.8,23a.23.23,0,0,0,0,.18s0,0,0,0,0,0,0,0A.18.18,0,0,0,62.8,23Zm-.29-5.3a.23.23,0,0,0,0,.16s0,.05,0,.05,0,0,0-.05A.18.18,0,0,0,62.51,17.65Zm-3.08-3s0,.08,0,.12,0,.06.05.06a.06.06,0,0,0,0-.08A.14.14,0,0,0,59.43,14.69Zm.36-.48a.23.23,0,0,0,0,.16s0,.05,0,.05,0,0,0-.05S59.84,14.26,59.79,14.21Zm-2,2s0-.08,0-.12h0s0,.08,0,.13,0,0,0,0l0,0s0,0,0,0Zm.69,5.29a.16.16,0,0,0,0,.19s0,0,0,0,0,0,0,0A.26.26,0,0,0,58.52,21.46ZM59,15.25a.19.19,0,0,0,0,.18s0,0,0,0a0,0,0,0,0,0,0C59.07,15.36,59,15.31,59,15.25Zm3.51,6.44a.21.21,0,0,0,0,.13s0,.05.05.05a0,0,0,0,0,0-.06A.15.15,0,0,0,62.51,21.69Zm-5-1.75a.29.29,0,0,0,0,.18s0,0,0,0l0,0A.18.18,0,0,0,57.5,19.94Zm-.3-2.29a.28.28,0,0,0,0,.18,0,0,0,0,0,0,0,0,0,0,0,0,0,0A.15.15,0,0,0,57.2,17.65ZM59.36,15a.27.27,0,0,0,0,.17s0,0,0,0,0,0,0,0S59.4,15.08,59.36,15Zm-2.15,4.92a.23.23,0,0,0,0,.18,0,0,0,0,0,0,0s0,0,0,0S57.25,20,57.21,19.94Zm4.53-6.16a.15.15,0,0,0,0,.14s0,.05,0,0,0,0,0,0A.16.16,0,0,0,61.74,13.78Zm1.31,9a.53.53,0,0,0-.06.14s0,.05,0,.05,0,0,0,0ZM60.28,14a.25.25,0,0,0,0,.19l0,0,0,0A.18.18,0,0,0,60.28,14Zm-.06,7.37a.16.16,0,0,0,0,.15s0,0,0,0,0,0,0,0A.16.16,0,0,0,60.22,21.35Zm.46-7.25c0,.11,0,.15,0,.22A.28.28,0,0,0,60.68,14.1Zm-3,4.29-.07.11s0,0,0,.06.06,0,.08,0,0,0,0,0A.25.25,0,0,0,57.63,18.39Zm4.81-3.5a.27.27,0,0,0,0,.17s0,0,0,0,0,0,0,0A.19.19,0,0,0,62.44,14.89Zm-5.38,3.69a.29.29,0,0,0,.15.09c0-.09,0-.09-.05-.09Zm5.41,4.66a.24.24,0,0,0,.07-.09s.05,0,0-.08S62.48,23.1,62.47,23.24Zm-1.78-1a.21.21,0,0,0,0-.2C60.64,22.11,60.63,22.17,60.69,22.22Zm2.59,1.51a.09.09,0,0,0,0-.09s0,0,0,0-.06,0-.06.08S63.26,23.72,63.28,23.73ZM57.05,19a.23.23,0,0,0,0,.23A.66.66,0,0,0,57.05,19Zm2.11-4.22s0,0,0,0,0,0-.05,0a0,0,0,0,0,0,0S59.15,14.8,59.16,14.77Zm1-.62s0-.05,0-.05,0,0,0,.05a0,0,0,0,0,0,0S60.12,14.17,60.12,14.15Zm-.74.47s0,0,0,0l0,0a.43.43,0,0,1,0-.05,0,0,0,0,0,0,0l0,0A.08.08,0,0,0,59.38,14.62Zm-1.35,2s0,0,0,0,0,0,0,0,0,0,0,0S58,16.6,58,16.58Zm.76-1.69,0,0s0,0,0,0,0,0,0,0S58.78,14.91,58.79,14.89Zm3.74-1.71c0-.07,0-.07,0-.11A.09.09,0,0,0,62.53,13.18ZM62,22s0,0,0,.07l0,0s0,0,0,0S62.06,22.05,62,22Zm.34-4.48s0,.05,0,.08h0a.06.06,0,0,0,0-.08Zm.1.78a.09.09,0,0,0,0-.13S62.46,18.27,62.47,18.33Zm.13-4.83s0,0,0,0a0,0,0,0,0,0,0,0,0,0,0,0,0,0S62.6,13.52,62.6,13.5Zm-2.51.17c0,.05-.05.06,0,.09h0S60.1,13.72,60.09,13.67ZM59,21.44s0,0,0,0a0,0,0,0,0,0,0l0,0S59,21.42,59,21.44Zm4.23-8.27s0-.07,0-.11S63.21,13.14,63.25,13.17Zm-1,3.14s0,0,0-.07h0A.07.07,0,0,0,62.2,16.31Zm-4.66.26a0,0,0,0,0,0,0,.07.07,0,0,0,0,.05h0s0,0,0-.06Zm5.38-3.71s0,0,0,0a0,0,0,0,0,0,0s0,0,0,0S62.91,12.85,62.92,12.86ZM57.05,17.7s0,0,0,.09A.1.1,0,0,0,57.05,17.7Zm.66.28s0,0,0,0,0,0,0,0,0,0,0,0S57.71,18,57.71,18Zm4.38,5.11h0a0,0,0,0,0,0,.05s0,0,0,0a0,0,0,0,0,0,0S62.1,23.09,62.09,23.09Z"/><path d="M65.14,14.79l-.1-.12a.2.2,0,0,1,0-.21.07.07,0,0,0,0-.1l-.19-.15c.11,0,.12-.14.18-.2s-.06,0-.06-.1.08-.17.08-.27v-.5c0-.05,0-.1,0-.14s0-.06,0-.08,0-.07,0-.1.09-.05.11-.12-.08,0-.12,0-.15-.06-.12-.16a.22.22,0,0,1,.12-.19.08.08,0,0,0,0,0,.49.49,0,0,1-.16-.37c0-.32,0-.63,0-.95,0,0,0-.05,0-.06s0-.08,0-.14a1,1,0,0,1-.08-.29,3.66,3.66,0,0,1,0-.66v0a.58.58,0,0,1,.45.45s.06,0,.09-.07.07,0,.09,0a.38.38,0,0,0,.25.09c.14,0,.15,0,.14.18a.9.9,0,0,0,0,.28.58.58,0,0,1,0,.19l.06.67c0,.32.07.64.07,1a3.31,3.31,0,0,0,.06.55.3.3,0,0,1,0,.21.4.4,0,0,0,0,.15V15a.19.19,0,0,0,.08.18l.19-.27c0,.06.07.11,0,.17s0,.07,0,.1a.44.44,0,0,1-.22.38.09.09,0,0,0,0,.08v.94s0,0,0-.06a1.27,1.27,0,0,1,.36-.44,3.07,3.07,0,0,0,.26-.25.72.72,0,0,1,.19-.14.53.53,0,0,1,0,.12c0,.06,0,.05.08.05s0,0,0-.07l0-.13a.25.25,0,0,1,.07-.26l.08-.08a.12.12,0,0,1,.1,0l.09,0a.09.09,0,0,1,.11,0,.07.07,0,0,0,.09,0c0-.14.12-.18.23-.23l.07,0c0,.06,0,.12,0,.18a.15.15,0,0,0,.07-.11.53.53,0,0,1,.15-.26.26.26,0,0,1,.11-.07s.08,0,.09,0,0,0,.07,0l.11-.12c.07-.05.08-.05.15,0a.5.5,0,0,1,.26-.16s0,.07,0,.11,0,.07.07.07.06,0,.06-.09,0-.06,0-.1l.17,0c.05,0,.07,0,.07,0a.88.88,0,0,0,.07.23c0,.11,0,.11,0,.17l0,0a.09.09,0,0,0,0,.1s.06,0,.08,0l.1-.12a.14.14,0,0,0,0-.19c.08,0,.1.1.16.13s.06-.18.09-.26,0,0,0-.07,0,0,.07,0,0,0,0,0,0,.15,0,.23a.15.15,0,0,0,.08,0c.08,0,.08-.05.13,0s.12.11,0,.22c.11-.05.16,0,.21.07s.09.1.21,0,0,.05,0,.07v.06s0,0,0,0,.21,0,.28.11a2.43,2.43,0,0,1,.33.56,1.44,1.44,0,0,0,.25.39.34.34,0,0,0,.28.12h0a.68.68,0,0,1-.07.2.14.14,0,0,0,0,.14.87.87,0,0,0,.16.26.08.08,0,0,1,0,.12.2.2,0,0,0,0,.21,1.59,1.59,0,0,1,.07.2.41.41,0,0,1,0,.19.82.82,0,0,0,0,.31,1,1,0,0,1,0,.29.1.1,0,0,1,0,.09.81.81,0,0,0-.12.14c.13,0,.16.08.16.21V20a3.05,3.05,0,0,1,0,.52.13.13,0,0,0,0,.12.11.11,0,0,1,0,.13s0,0,0,0a0,0,0,0,0,0,0s0,0,0,0,0,.11,0,.13,0,0,0,.05a1.63,1.63,0,0,0-.06.54v.15c0,.08,0,.09.09.11h0a.13.13,0,0,1,.12.12s0,.07,0,.08a.27.27,0,0,0-.26.28,2.4,2.4,0,0,1-.17.65.61.61,0,0,0,0,.19c0,.14,0,.15-.15.14s-.06,0-.09,0,0-.09,0-.15a.16.16,0,0,0-.1,0c-.14,0-.14,0-.21-.08a2,2,0,0,0-.11-.2s0,0,0,0a.85.85,0,0,1-.25.17c0-.07,0-.12,0-.18a.22.22,0,0,0,0-.26.24.24,0,0,0-.17-.12l-.07,0c0-.11,0-.11.13-.07l0-.2s-.09.08-.16.07,0-.05,0-.08v-.29a.17.17,0,0,1,0-.1s0,0,.07,0,0-.08,0-.11a.11.11,0,0,0-.12-.06c-.06,0-.08,0-.08-.08a1.52,1.52,0,0,0,0-.21.25.25,0,0,1,0-.17.09.09,0,0,1,.09,0s.05,0,.05.06a.76.76,0,0,1,0,.11l0,.13a.3.3,0,0,0,.14-.18.49.49,0,0,0,0-.24.44.44,0,0,1,.07-.27l.06-.11c-.06,0-.12,0-.17,0a2.21,2.21,0,0,0,.11-.51.25.25,0,0,0-.15,0s0,0,0,0,0,0,0,0,.07,0,.11,0,.09,0,.09-.07,0-.12,0-.18,0-.07-.1,0,0,0-.07,0l.09-.24s-.07,0-.09,0,0,0,0,0l0-.07c0-.06.06-.12,0-.17l.15-.19,0,0a.11.11,0,0,1,0-.18.24.24,0,0,0,0-.3l0-.05a0,0,0,0,1,0-.07.17.17,0,0,0,.1-.18s0,0-.07,0-.08,0-.09-.07a.05.05,0,0,0,0,0s0,0,0,0a.07.07,0,0,0,0,0s0,.07-.06.08-.06-.05-.07-.08a.82.82,0,0,1,0-.38s-.08,0-.09,0-.05-.1,0-.15a.37.37,0,0,0,.07-.12c-.11,0-.11,0-.11-.16v-.38c-.06,0-.08.05-.12.07a0,0,0,0,1-.08,0l-.12-.22a.2.2,0,0,1,0-.13s0-.08,0-.12-.11,0-.15-.05a1.8,1.8,0,0,1-.2-.19,2.45,2.45,0,0,0-.38-.24h-.22a.37.37,0,0,0-.3.1c0,.05-.09.05-.15,0a.09.09,0,0,0-.1,0l-.06.06a6.59,6.59,0,0,0-.64.52l-.22.17s0,0-.08,0-.15.09-.2.16a.08.08,0,0,1,0,0s0-.05,0-.07,0,0,0,0,0,0,0,0a.09.09,0,0,0,0,.09s0,.07,0,.11a2.68,2.68,0,0,0-.18.28.32.32,0,0,1-.11.12,1.89,1.89,0,0,1-.2.2.11.11,0,0,0,0,.13.18.18,0,0,0-.16.06,1.73,1.73,0,0,0-.17.21.15.15,0,0,0,0,.17.29.29,0,0,1,0,.33,1,1,0,0,0-.15.51,4,4,0,0,1,0,.6.13.13,0,0,0,0,.06,4.74,4.74,0,0,1-.06.75,1.55,1.55,0,0,0,.08.64c0,.1.05.11.12.05l0,0a2.1,2.1,0,0,1-.2,1s0-.05,0-.07,0,0,0,0,0,0,0,0a.23.23,0,0,0,0,.14c0,.06,0,.11,0,.11s-.1.07-.11.13v0c0,.1-.06.13-.15.14h-.1c0-.05.06-.06.08-.1a.18.18,0,0,1-.15-.2s0-.09-.06-.09-.09,0-.09.11a.25.25,0,0,0,0,.12.08.08,0,0,1,0,.1c0,.06-.08.13-.17.16,0-.12,0-.24,0-.36s-.08,0-.12.05-.07,0-.09,0-.09-.08-.15,0a.11.11,0,0,1,0-.08.23.23,0,0,0,0-.28c-.07-.08-.07-.08,0-.15s0,.05.07.06,0-.06.06-.08a.12.12,0,0,0,0-.15.44.44,0,0,1,0-.28c0-.09,0-.09-.1-.1h0s-.05,0,0,0,0,0,0,0h0c.1,0,.1,0,.1-.08s0-.21,0-.32a.32.32,0,0,1,0-.14l.17-.31a.42.42,0,0,0,0-.17c-.13.05-.15.2-.28.26a1,1,0,0,0,0-.33.13.13,0,0,1,.08-.14.17.17,0,0,0,0-.23c0-.05-.06-.09,0-.13a.24.24,0,0,0,0-.27A.47.47,0,0,1,65,19c0,.14,0,.26,0,.38a1.06,1.06,0,0,0,.09-.68l-.2.15c0-.09,0-.16,0-.22s0-.06,0-.09a.12.12,0,0,1,0-.11A1.15,1.15,0,0,1,65,18a1.84,1.84,0,0,0,0-.33v-.59a.36.36,0,0,1,0-.18.09.09,0,0,0,0-.07c0-.06,0-.1,0-.15l.16-.24c0-.06,0-.06,0-.09a.08.08,0,0,0-.09,0v.24a.39.39,0,0,1-.11-.21s0-.05,0-.08a.16.16,0,0,0,0-.15c0-.12,0-.12.07-.2s0,0,0,0,0,0,0,0,0,0,0,0a.25.25,0,0,0,0-.22.17.17,0,0,1-.19.06.91.91,0,0,0,.18-.46.37.37,0,0,0,0-.11c0-.07-.06-.09-.12,0s0,0,0,0h0a.38.38,0,0,1,.12-.16s0,0,.07,0l.06,0s.06,0,.07,0a.27.27,0,0,0-.09-.28Zm5.62,6.7a.06.06,0,0,1,0-.08.65.65,0,0,0,.06-.24c0-.07,0-.09-.08-.07a.27.27,0,0,0-.13.15s.06,0,.09,0-.06.23-.07.35a.25.25,0,0,0,.12,0H71a2,2,0,0,0-.08-.26S70.81,21.45,70.76,21.49Zm-3-5.74s0-.05.06-.06a.12.12,0,0,1,0,.14.13.13,0,0,0,0,.06,0,0,0,0,0,0,0,.05.05,0,0,0,0-.06.41.41,0,0,1,0-.22.14.14,0,0,0,0-.06s-.07,0-.11,0A.16.16,0,0,0,67.76,15.75ZM68.89,15a.37.37,0,0,0,.1-.42A.58.58,0,0,0,68.89,15ZM66,16.91a0,0,0,0,0,0,0,.17.17,0,0,0,0,.14s0,.08,0,.13l0,0s.06,0,.07,0-.06-.15,0-.22,0-.05,0-.07v0Zm-.85-6.35,0,0a.06.06,0,0,0,0,.07.28.28,0,0,1,0,.18.08.08,0,0,0,0,.08,0,0,0,0,0,.05,0l0,0v-.05c0-.07,0-.12,0-.19S65.19,10.59,65.16,10.56Zm1.61,6.26c-.06.06-.07.08,0,.16s0,.05,0,.08a.09.09,0,0,0,0,.1s0,0,0,0,0,0,0,0,0-.18,0-.27A.08.08,0,0,0,66.77,16.82ZM65,11.54c0,.11,0,.22,0,.33h0s0,0,0,0,0,0,0,0,0-.09,0-.13,0-.09,0-.14A.13.13,0,0,0,65,11.54Zm1.87,4.9a0,0,0,0,0,0,0,.16.16,0,0,0,.06.18s0,.06.06.05,0-.05,0-.08v0s0,0,0,0,0,.06,0,0S66.92,16.47,66.89,16.44ZM66.7,16a.13.13,0,0,0,0,.16s0,0,.06,0a0,0,0,0,0,0-.06S66.72,16.09,66.7,16Zm3.06.1a.39.39,0,0,0,0-.15s0,0,0,0,0,0,0,0A.15.15,0,0,0,69.76,16.13Zm1.56,6.56a.08.08,0,0,0,0,.1s0,.06,0,.06a.07.07,0,0,0,0-.09A.1.1,0,0,0,71.32,22.69ZM65,21.38c-.08.08-.06.12,0,.2s0,0,0,0,0,0,0-.05A.19.19,0,0,1,65,21.38Zm5.93.7a.14.14,0,0,0,0,.17s0,0,0,0,0,0,0,0Zm-6-1.41c-.06,0-.07.09,0,.14l0,0s0,0,0,0A.19.19,0,0,0,65,20.67Zm1-5.41s0,.08,0,.12,0,.06,0,.06,0,0,0-.08A.93.93,0,0,0,66,15.26Zm5.57,3.09a.19.19,0,0,0,0,.16s0,0,0,0a0,0,0,0,0,0-.05A.34.34,0,0,0,71.59,18.35Zm-2.85-3.64a.12.12,0,0,0,0,.14s0,0,0,0,0,0,0,0S68.78,14.75,68.74,14.71ZM68.15,16a.2.2,0,0,0,0,.14s0,.05,0,.05a0,0,0,0,0,0-.06S68.17,16,68.15,16Zm-3.22,2.39v0s0,.07,0,.06,0,0,0-.06a.24.24,0,0,0,0-.08s0,0,0,0A.07.07,0,0,0,64.93,18.34Zm.17-.67a.15.15,0,0,0,0,.15,0,0,0,0,0,0,0s0,0,0-.05S65.12,17.73,65.1,17.67Zm6.53.59s0,.06,0,.07,0,0,.06,0a.08.08,0,0,0,0-.09l0,0s0,0,0,0,0,0,0,0S71.63,18.24,71.63,18.26Zm-3.89-2.87a.14.14,0,0,0,0,.14.05.05,0,0,0,0,0l0,0S67.78,15.43,67.74,15.39Zm2.2-.13a.12.12,0,0,0,0,.14,0,0,0,0,0,0,0,.05.05,0,0,0,0,0A.29.29,0,0,0,69.94,15.26ZM65,18a.13.13,0,0,0,0,.14s0,.05,0,0,0,0,0-.06A.84.84,0,0,0,65,18Zm2.06-1.92c0,.05,0,.09,0,.13s0,.05,0,.05a.06.06,0,0,0,0-.06A1,1,0,0,0,67.09,16.05Zm-1.21,3.06a.23.23,0,0,0,0,.14,0,0,0,0,0,0,0s0,0,0-.05A.21.21,0,0,0,65.88,19.11Zm4.92-1.84a.24.24,0,0,0,0,.14s0,.05,0,0a0,0,0,0,0,0-.06A1,1,0,0,0,70.8,17.27Zm-5.71-3.65a.17.17,0,0,0,0,.15,0,0,0,0,0,0,0,.05.05,0,0,0,0-.05A.27.27,0,0,0,65.09,13.62Zm0,8.38a.14.14,0,0,0,0,.14s0,0,0,0,0,0,0,0S65.13,22.05,65.09,22Zm3-6.36a.14.14,0,0,0,0,.12s0,.07,0,.06a.05.05,0,0,0,0-.07A.54.54,0,0,0,68.08,15.64Zm3,5.59a.17.17,0,0,0,0,.15s0,0,0,0,0,0,0-.05A.27.27,0,0,0,71.07,21.23Zm-.27-.57a.14.14,0,0,0,0,.14,0,0,0,0,0,0,0s0,0,0,0S70.84,20.71,70.8,20.66Zm1-2.7a.13.13,0,0,0,0,.15s0,.05.05,0,0,0,0,0A.44.44,0,0,0,71.75,18Zm-6.39,4a.16.16,0,0,0,0,.13,0,0,0,0,0,0,0,0,0,0,0,0,0,0C65.42,22.07,65.4,22,65.36,22Zm5.45-1.81a.11.11,0,0,0,0,.13s0,0,0,0l0,0C70.87,20.27,70.84,20.24,70.81,20.19Zm-5.45,1.24a.16.16,0,0,0,0,.13s0,0,0,0a0,0,0,0,0,0,0S65.4,21.48,65.36,21.43Zm.39-10.49a.19.19,0,0,0,0,.16,0,0,0,0,0,0,0,0,0,0,0,0,0,0A.53.53,0,0,0,65.75,10.94ZM67,16.35s0-.07,0-.09,0,0,0,0,0,.06,0,.1,0,.05,0,.05S67,16.38,67,16.35Zm-1.76,5.76h0a.25.25,0,0,0,0,.12s0,.05,0,.05a.06.06,0,0,0,0-.06S65.25,22.15,65.24,22.11Zm4.52-6.47a.17.17,0,0,0,0,.15s0,0,0,0l0,0S69.77,15.7,69.76,15.64Zm-4.53-5.29a.23.23,0,0,0,0,.15s0,.05,0,0,0,0,0,0S65.25,10.41,65.23,10.35Zm5.91,12.42a.19.19,0,0,0,0,.14s0,.05,0,.05,0,0,0-.06S71.16,22.83,71.14,22.77Zm-5.38-1.05c0,.05-.05.09,0,.13s0,0,0,0,0,0,0-.05S65.77,21.76,65.76,21.72Zm2.12-6.65a.13.13,0,0,0,0,.13,0,0,0,0,0,0,0s0,0,0,0A.17.17,0,0,0,67.88,15.07Zm-2.72,3.11a.13.13,0,0,0,0,.12s0,0,0,0a0,0,0,0,0,0,0A.13.13,0,0,0,65.16,18.18Zm4.3-3.2v0s0,0,0,0,0,0,0-.05v0s0-.07-.05-.06S69.46,15,69.46,15Zm-4.3,4.83a.13.13,0,0,0,0,.12s0,0,0,0,0,0,0,0A.12.12,0,0,0,65.16,19.81ZM70,16.32s0,0,0,.06,0,0,0,0,0,0,0-.06S70,16.32,70,16.32Zm.73.65v0s0,.06,0,.08h0s0-.06,0-.09S70.73,17,70.71,17ZM65.1,12s0,.06,0,.09A.06.06,0,0,0,65.1,12Zm5.71,10.31a.15.15,0,0,0,0,.13C70.85,22.4,70.83,22.37,70.81,22.32ZM65,20.92s0,0,0,0,0,0,0,0,0,0,0,0S65,20.92,65,20.92Zm.06-3.77s0,0,0,0a0,0,0,0,0,0,0s0,0,0,0Zm.58-6.3v0l0,0v0S65.66,10.86,65.66,10.85Zm-.56,2.27a0,0,0,0,0,0,0,.05.05,0,0,0,0,0h0S65.09,13.14,65.1,13.12Z"/><path d="M42.4,11a.52.52,0,0,0,.14-.21.08.08,0,0,0,0-.1l-.16-.16a.13.13,0,0,1-.06-.12,1.47,1.47,0,0,0,0-.21s0-.06,0-.07.09-.07.1-.13,0-.18.19-.18a.11.11,0,0,0,.12-.06.66.66,0,0,1,.14-.15A.38.38,0,0,0,43,9.43s0,0,0,0H42.9c-.08,0-.08,0-.1-.1a.4.4,0,0,0-.29.26,1.23,1.23,0,0,1-.12.26s0,.08-.09.1a.33.33,0,0,1,0-.14c0-.14,0-.28,0-.42s0-.08.07-.08.09-.06,0-.11l0,0c-.1-.05-.1-.13-.1-.22a3.23,3.23,0,0,0,0-.44.08.08,0,0,1,.07-.09l.77-.19a2.79,2.79,0,0,1,.5,0,.05.05,0,0,1,.06.06v0a.47.47,0,0,0,.24.4.12.12,0,0,1,.05.19.82.82,0,0,0-.08.46.47.47,0,0,0,.12.28.48.48,0,0,1,.12.33.17.17,0,0,1-.06.15c-.06.06,0,.15,0,.24s0,.18,0,.28a.37.37,0,0,1,0,.25.48.48,0,0,0,0,.39.88.88,0,0,0,0,.15.86.86,0,0,1,.08.45,5,5,0,0,1-.08.66.76.76,0,0,1-.11.32.08.08,0,0,0,0,.08c.06,0,.12-.05.19-.05s0,.05,0,.08a.44.44,0,0,0,.06.25.73.73,0,0,1,.07.29c-.1,0-.14-.06-.21-.07a.38.38,0,0,0-.05.16,4.34,4.34,0,0,0,0,.72.18.18,0,0,0,0,.13.31.31,0,0,1,.07.22,1.15,1.15,0,0,0,0,.26.22.22,0,0,1-.05.19l0,0c-.05.07-.05.07-.13,0a.24.24,0,0,0,0,.2.29.29,0,0,1,.07.24c0,.06-.06.07-.09.12a.13.13,0,0,1,.08.14.55.55,0,0,0,0,.18.54.54,0,0,1-.06.41c-.08.13,0,.25.15.25a.16.16,0,0,1,.14.09c-.21.1-.21.1-.2.33a.49.49,0,0,0,0,.12c0,.09,0,.16-.08.2a.07.07,0,0,0,0,.09c0,.23,0,.47,0,.71,0,.05,0,.1,0,.15a.16.16,0,0,0-.1-.21s0,0,0,0-.1-.05-.14,0a.12.12,0,0,0,0,.15s.06,0,.08,0l.07-.09a.17.17,0,0,1,0,.13.05.05,0,0,0,0,.09.11.11,0,0,0,.14,0c0,.05-.05.09-.05.14s.12,0,.12.16a3.38,3.38,0,0,1-.1.72l-.06.19c.05,0,.06-.07.11-.1l.08.08a.13.13,0,0,0,.19,0l.07-.05.08,0a.17.17,0,0,1,0,.18,4.17,4.17,0,0,0-.37.56.79.79,0,0,0-.07.62s0,.05,0,.07,0,.08,0,.11S44,21,44,21s.06,0,.08,0a.25.25,0,0,0,.24.08h.43c.06,0,.08,0,.08-.07a.28.28,0,0,1,0-.09.05.05,0,0,1,.07,0s0,0,.05.05v.08s0,.05,0,.07,0,.05.07.05l.3.06a.13.13,0,0,0,.13,0l.13-.13s0,0,0,.06a.17.17,0,0,0,.18.13,4.87,4.87,0,0,1,.54,0l.38.05c.06,0,.07,0,.07.09a.65.65,0,0,0,0,.14l.23-.16a.25.25,0,0,1,.16-.06h0a2.38,2.38,0,0,1,.75.1s0,0,.07,0a.26.26,0,0,1,.25.12c.12.14.17.16.36.05l0,0c0,.07,0,.11,0,.17s.07,0,.11,0H49a.06.06,0,0,1,.07,0,.15.15,0,0,0,.11.12l.13.06a.11.11,0,0,1,.06.07s0,0,0,.05h0c-.08,0-.08,0-.08.08v.48c0,.1,0,.1-.1.12l-.38.06a.39.39,0,0,1-.3-.05.27.27,0,0,0-.27,0l-.1,0a.41.41,0,0,1-.36,0,.57.57,0,0,0-.26,0,3.43,3.43,0,0,0-.78.07s-.08,0-.1,0-.05,0-.09-.06a.73.73,0,0,0-.21-.06.42.42,0,0,1-.22-.13.21.21,0,0,1-.18.07,3,3,0,0,1-.8-.12,3.25,3.25,0,0,0-.88-.09l-.13,0a1.22,1.22,0,0,0-.37.27v-.31c0-.11,0-.11-.11-.11h0s-.09,0-.1,0,0,.06.07.08a.16.16,0,0,1,0,.24.1.1,0,0,1-.08,0s0-.05,0-.08a.06.06,0,0,0-.06-.05s0,0-.05,0a1.19,1.19,0,0,1-.08.16s0-.05,0-.07a2,2,0,0,1-.05-.24c0-.08,0-.16,0-.21a1.12,1.12,0,0,0-.15-.11s0,.05,0,.07-.06.15-.1.22a.69.69,0,0,0-.07.35c0,.09,0,.1-.09.1s-.14,0-.14-.14a.26.26,0,0,1,0-.17s-.09,0-.1-.07a.16.16,0,0,1,0-.13c0-.05.07-.05.1,0a.46.46,0,0,1,0,.09.43.43,0,0,0,.11-.37s0,0-.08,0a.2.2,0,0,1-.19-.05,1.2,1.2,0,0,1-.23-.22s0-.06,0-.09a.1.1,0,0,0,0-.12,1.33,1.33,0,0,1,0-.2V21.3l-.16.06q-.08,0-.06-.06l.09-.41c0-.06,0-.11,0-.15a.09.09,0,0,1,0-.11,1.46,1.46,0,0,0,.05-.2c0-.06,0-.12-.05-.15s0,0,0-.05a.36.36,0,0,0,0-.2v-.69c0-.09,0-.18.08-.24H42.1a.26.26,0,0,1,0-.15,2.38,2.38,0,0,0,.07-.7.27.27,0,0,1,.08-.24h0s0-.05.06,0h0c0,.06,0,.09.09.09s.07-.05.06-.12,0-.06-.06-.1,0-.05.05-.06.07-.07,0-.12a0,0,0,0,1,0-.07.36.36,0,0,0,.08-.15.52.52,0,0,0-.15.07.2.2,0,0,1-.24,0,.14.14,0,0,1,0-.09v-.35c0-.06,0-.06.09-.14s0,0,0,.06a.08.08,0,0,0,.07-.08.3.3,0,0,0,0-.23.55.55,0,0,1-.08-.41,1.85,1.85,0,0,1,.08-.47.1.1,0,0,0,0-.13s-.06-.07,0-.11.09-.1.14-.15a1.63,1.63,0,0,1,.11.17s.06,0,.08,0a.91.91,0,0,0,.11-.16s0-.09,0-.1-.06,0,0-.09a.19.19,0,0,1,.14-.17.22.22,0,0,1,.24.06l0,0a.32.32,0,0,0,.11-.17A.24.24,0,0,0,43,15a3,3,0,0,0-.43-.07.3.3,0,0,0-.26.11.3.3,0,0,1-.1-.28,2.27,2.27,0,0,1,.14-.51c0-.06,0-.08,0-.11a.54.54,0,0,1-.12-.09,1.27,1.27,0,0,0,.4-.72c-.06,0-.11,0-.16,0s-.12,0-.14-.1a.43.43,0,0,1,0-.23c.08,0,.14.07.21.08a1.13,1.13,0,0,0,0-.26s0,0-.05,0h-.08c-.09,0-.09,0-.09-.1a2.17,2.17,0,0,1,0-.26c0-.33,0-.66,0-1a.56.56,0,0,1,.1-.28s0,.06,0,.08,0,0,.07,0,0,0,.06,0a.1.1,0,0,0-.08-.14s0,0,0,0ZM43,12.71h0a.1.1,0,0,0,0,.09.07.07,0,0,0,.13,0c0-.05,0-.15,0-.17a.2.2,0,0,1-.09-.09.05.05,0,0,0-.07,0,.06.06,0,0,0-.05.06C42.92,12.65,42.94,12.69,43,12.71Zm4.52,9.17a.3.3,0,0,0-.41-.06.5.5,0,0,0-.19.45,1.55,1.55,0,0,0,.23-.21c.07-.07.07-.07,0-.15a.12.12,0,0,1,.17,0c.06.07.07.05.13,0A.11.11,0,0,0,47.55,21.88Zm-4.8-7.21a.39.39,0,0,0,.11.06.07.07,0,0,0,.09,0,.19.19,0,0,1,.16-.05s0,0,.07,0l.07-.18A1,1,0,0,0,42.75,14.67Zm-.24,3.54a.16.16,0,0,0,.09.06c.19.08.21.07.3-.11h0a.12.12,0,0,0,0-.13Zm.35,1.31c0,.07,0,.12.11.12s.07-.05.07-.12a.3.3,0,0,0,0-.08s0,0,0,0,0-.11,0-.16-.08-.06-.11,0a.16.16,0,0,0,0,.1s.06.06.06.09S42.86,19.49,42.86,19.52Zm1.06-7.22c0-.07,0-.11-.07-.11s-.06,0-.07.05,0,.18,0,.27,0,0,0,.05,0,0,0,0a.08.08,0,0,0,.07,0,.08.08,0,0,0,0-.07s-.05-.07,0-.1S43.93,12.34,43.92,12.3Zm-.81,5.61s0-.09,0-.09-.07-.06-.09-.1a.07.07,0,0,0-.12,0,.12.12,0,0,0,0,.18A.09.09,0,0,1,43,18a.08.08,0,0,0,.1.05S43.1,18,43.11,17.91Zm-.44-1c0-.07,0-.11-.08-.11a.1.1,0,0,0-.11.11.1.1,0,0,0,.1.11C42.64,17,42.67,17,42.67,16.92Zm.46-7.87A.09.09,0,0,0,43,9a.1.1,0,0,0-.1.11.1.1,0,0,0,.11.11C43.09,9.17,43.13,9.12,43.13,9.05Zm.09,4.1a.09.09,0,0,0-.09-.1.1.1,0,0,0-.11.11.11.11,0,0,0,.11.09C43.19,13.25,43.22,13.21,43.22,13.15Zm4.44,9.28c0-.07,0-.11-.09-.11s-.08,0-.09.09,0,.12.09.12S47.66,22.49,47.66,22.43Zm-4.35-5.27c0-.08,0-.13-.1-.12s-.08,0-.07.11,0,.1.09.1S43.31,17.23,43.31,17.16ZM43,9.83q0,.08.09.09a.09.09,0,0,0,.1-.1.09.09,0,0,0-.1-.1C43,9.72,43,9.76,43,9.83Zm0-1.54s-.08.06-.08.13a.09.09,0,0,0,.11.09.08.08,0,0,0,.06-.1S43,8.29,43,8.29Zm6.12,14.12a.08.08,0,0,0,0-.06.06.06,0,0,0-.1,0,.19.19,0,0,0,0,.18.08.08,0,0,0,.11,0A.16.16,0,0,0,49.13,22.41Zm-6.21-8c0-.06,0-.1-.08-.1a.09.09,0,0,0-.09.09.1.1,0,0,0,.11.1S42.92,14.5,42.92,14.44ZM43.63,12c0-.06,0-.1-.09-.1a.1.1,0,0,0-.09.11.09.09,0,0,0,.09.09A.09.09,0,0,0,43.63,12Zm-.57,8a.11.11,0,0,0-.09-.11.08.08,0,0,0-.08.1.09.09,0,0,0,.1.1S43.06,20,43.06,20ZM48,21.79c0-.07,0-.11-.08-.11a.09.09,0,0,0-.09.1c0,.06,0,.1.09.1A.08.08,0,0,0,48,21.79Zm-4.33-9.06a.08.08,0,0,0,0-.07.07.07,0,0,0-.08,0c-.05,0-.05.06-.05.1s0,.09,0,.11a.08.08,0,0,0,.09,0A.08.08,0,0,0,43.62,12.73Zm-1.08-1.3c0-.07,0-.1-.09-.1s-.08,0-.08.1,0,.09.08.09S42.54,11.49,42.54,11.43ZM43,14c0,.07,0,.1.06.11s.09,0,.09-.11a.1.1,0,0,0-.08-.11S43,13.94,43,14Zm-.51,2.23a.34.34,0,0,0,.08-.36A.41.41,0,0,0,42.47,16.25Zm.21.79h0a.14.14,0,0,0,0,.19.08.08,0,0,0,.09,0,.12.12,0,0,0,0-.1S42.73,17.06,42.68,17Zm.92-.74c0-.05-.06-.12-.09-.12a.1.1,0,0,0-.08.1.09.09,0,0,0,.11.09S43.6,16.34,43.6,16.3ZM47,22.66v0a.09.09,0,0,0,.1.07.08.08,0,0,0,0-.11s0,0,0-.08a0,0,0,0,0-.08,0A.09.09,0,0,0,47,22.66Zm-4.2-9.72c0-.06,0-.09-.08-.09s-.08,0-.07.11a.07.07,0,0,0,.07.08S42.79,13,42.79,12.94Zm.27,7.47s-.06-.13-.08-.13-.09,0-.09.09,0,.09.08.1A.08.08,0,0,0,43.06,20.41Zm.88,1.94c0-.05,0-.12-.07-.12a.1.1,0,0,0-.08.1.09.09,0,0,0,.09.09S43.94,22.4,43.94,22.35Zm-1.37-2.6a.08.08,0,0,0,0,.08.06.06,0,0,0,.08,0,.08.08,0,0,0,0-.1l0,0c0-.05-.06,0-.09,0A.15.15,0,0,0,42.57,19.75Zm.51-7.88c0-.07,0-.11-.08-.11s-.07,0-.07.09,0,.1.07.1A.07.07,0,0,0,43.08,11.87Zm.73,8c-.05,0-.06,0-.06.09a.08.08,0,0,0,.07.1s.07,0,.07-.06S43.84,19.85,43.81,19.85Zm-.9-4.11a.08.08,0,0,0,.13.07.08.08,0,0,0,0-.1l0-.05s-.06,0-.08,0A.12.12,0,0,0,42.91,15.74Zm.89,3.44-.13-.1a0,0,0,0,0-.06,0s0,0,0,.05a.36.36,0,0,0,0,.09s0,.05.05,0A.26.26,0,0,0,43.8,19.18ZM43,21.26a.08.08,0,0,0,0,.07.06.06,0,0,0,.08,0s0-.06,0-.1l0,0s0,0-.07,0A.11.11,0,0,0,43,21.26Zm4.89,1.16a.09.09,0,0,1,0,0s0,.06.06.06.05,0,.06-.06,0-.08,0-.12,0,0,0,0a.08.08,0,0,0,0,0A.13.13,0,0,1,47.91,22.42ZM43,20.92a.69.69,0,0,0-.1-.19.62.62,0,0,0-.07.19Zm.16-9.07v0a.07.07,0,0,0,0,.07.06.06,0,0,0,.07,0,.06.06,0,0,0,0-.08l0-.06s0,0,0,0,0,0,0,0Zm-.84,5.3a.1.1,0,0,0,0,.07.05.05,0,0,0,.07,0s0,0,0-.06a.24.24,0,0,0,0-.09s0-.06,0-.05,0,0,0,.06Zm.23-2.92c-.06,0-.05.1-.05.15s0,.07.06.06.05,0,0-.08A.35.35,0,0,0,42.53,14.23ZM42.89,11v.09s0,0,0,0,0,0,0,0V11s0-.11-.05-.11S42.89,11,42.89,11Zm-.27,8.34c-.12,0-.13,0-.15.09S42.57,19.36,42.62,19.31Zm-.18-.68a.13.13,0,0,0,.16-.07A.11.11,0,0,0,42.44,18.63Zm5.62,3.19c-.07,0-.09.06-.07.12S48.08,21.89,48.06,21.82Zm-4.89-13s0-.07-.05-.07a0,0,0,0,0,0,0s0,.06,0,.06S43.16,8.82,43.17,8.8Zm-.65,1.45a.05.05,0,0,0,0,0s0,.05,0,.05a0,0,0,0,0,0,0S42.56,10.25,42.52,10.25Zm.63,7.83s0-.06,0-.06,0,0,0,0,0,.05,0,.05S43.15,18.09,43.15,18.08Zm4.64,4.41s0,0,0,0,0,0,0,0,0,.05,0,.05S47.79,22.51,47.79,22.49ZM48.4,22s0-.05,0-.06,0,0,0,0,0,0,0,0S48.4,22,48.4,22Zm-5.71-4.37a0,0,0,0,0,0,0s0,0,0,0,0,0,0,0A.05.05,0,0,0,42.69,17.59Zm0-5.1,0,0s0,0,0,0,0,0,0,0S42.66,12.51,42.66,12.49Zm-.06,1.3s0,0,0,0,0,0,0,0h0ZM43,16.54s0,0,0-.05h0s0,0,0,.05S43,16.55,43,16.54Zm0,2.05s0,0,0,0,0,0,0,0,0,0,0,0S43,18.61,43,18.59Zm-.44,1.48s0,0,0,0a0,0,0,0,0,0,0s0,0,0,0S42.5,20.09,42.51,20.07Z"/><path d="M76,19.46a.24.24,0,0,1,0,.14l-.09.24c0,.06-.06.12,0,.19s0,.07,0,.1,0,.3,0,.45,0,.08,0,.1,0,.06,0,.09,0,.32-.08.47a1.67,1.67,0,0,0,0,.31.34.34,0,0,1-.11.25.17.17,0,0,0-.07.18.19.19,0,0,1,.19,0,.58.58,0,0,1-.17.06s0,0,0,0,.05.11,0,.17a.12.12,0,0,0,0,.1.06.06,0,0,0,.1,0l.09-.09a.78.78,0,0,0,0,.22c0,.09.09.18.22.18-.14.1-.3.17-.44.29,0-.11,0-.19,0-.27s0-.11,0-.13a.59.59,0,0,1-.32-.17c0,.09,0,.17,0,.26-.07-.09-.14-.05-.21,0l-.3.12a1.31,1.31,0,0,1-.06-.27c0-.08,0-.09-.11-.09s-.09,0-.09-.09a.11.11,0,0,0-.08-.14s0,.11-.08.17v-.1c0-.21,0-.41,0-.61a.46.46,0,0,1,.13-.36c0-.06.09-.14.2-.1s0,0,.06,0,.1-.05.16,0l.07,0s.06,0,.08,0S75,21,75,21s0,0-.07,0l-.1,0s0,0-.07,0a0,0,0,0,1,0-.07.15.15,0,0,1,0-.07s0,.06.08.08a1.14,1.14,0,0,0,.14-.16s0-.07,0-.1a.06.06,0,0,0-.09,0l-.12.11a.19.19,0,0,1-.13.07s0,0-.06,0a.21.21,0,0,1-.13.07c-.08,0-.09,0-.1-.07s0-.05,0,0-.06,0-.06-.08,0-.32,0-.47a.79.79,0,0,1,.13-.33s-.06,0-.11,0a1.88,1.88,0,0,1,.05-.33.3.3,0,0,0,0-.1.23.23,0,0,0,0,0c-.09,0,0-.08,0-.12a.5.5,0,0,1,0-.12.28.28,0,0,0,0-.25.06.06,0,0,1,0-.08l.17-.18s0-.07,0-.12a1.28,1.28,0,0,1-.14-.37.15.15,0,0,1,0-.14c.13-.12.13-.12.07-.28a.74.74,0,0,1,0-.25.07.07,0,0,1,0-.06s0-.07,0-.12v-.39a.13.13,0,0,0,0-.1.16.16,0,0,1,0-.21l.14-.16,0,0a.06.06,0,0,1,0-.09.25.25,0,0,0,0-.31s0-.09,0-.14a.25.25,0,0,1,.06-.28.36.36,0,0,0,.11-.2c0-.07,0-.08-.06-.08a.43.43,0,0,1-.16,0s0-.06,0-.09a.31.31,0,0,0,0-.21.14.14,0,0,1,.05-.13c.06-.06.06-.1,0-.16a.1.1,0,0,1,0-.12c0-.08,0-.16.08-.24a.26.26,0,0,0,0-.15.22.22,0,0,1,.07-.17s0,0,0,0a.11.11,0,0,0,0-.14.84.84,0,0,1-.06-.14c0-.07-.07-.07-.12,0a.75.75,0,0,1-.13.11,1.59,1.59,0,0,1,0-.44c0-.15,0-.3.08-.45a.32.32,0,0,0,0-.17.78.78,0,0,1-.06-.45.73.73,0,0,1,.08-.25c.06,0,0,.08.1.09s0,0,.06-.07,0-.1-.07-.1-.13,0-.14-.14-.07-.5-.1-.75a.31.31,0,0,1,.09-.29c.07-.06.08-.06,0-.15l-.32-.4,0-.05a.07.07,0,0,0-.13,0l0,.1a.07.07,0,0,1-.07,0s0,0-.06,0,0,.06-.08,0a.31.31,0,0,0-.28,0c-.08,0-.08,0-.13,0a.18.18,0,0,0-.06-.1s0,.11-.07.16-.09-.13-.16-.19,0,.06-.07.09a.11.11,0,0,1-.19,0s0-.09-.08-.12,0,0,0,0a.64.64,0,0,1-.45.26.57.57,0,0,1-.26,0,.61.61,0,0,0-.3,0c-.26.05-.52.12-.78.16a2.49,2.49,0,0,1-.47,0,.18.18,0,0,1-.18-.22,3.85,3.85,0,0,0,0-.59.21.21,0,0,1,.07-.18.43.43,0,0,0,.11-.33V9.37a2.26,2.26,0,0,1,.23.31,1.12,1.12,0,0,1,.59-.28s0,0,0,0,0,.08,0,.11.07,0,.11,0a2.59,2.59,0,0,1,.38-.17s.06,0,.08,0,.05.12.17.07l.19-.08c.05,0,.08,0,.11,0s0,.06.07.08.06-.14.12-.16.16-.08.24-.1a.12.12,0,0,1,.1,0s-.06.08-.08.13a.7.7,0,0,0,.2.08c0-.06,0-.14.08-.2l0,0a.15.15,0,0,1,0,.23,0,0,0,0,0,0,.05s.08,0,.12,0,.09-.09,0-.16a.1.1,0,0,1,0-.14.15.15,0,0,1,.06.17.73.73,0,0,1,.4-.11s.06,0,.06.06,0,.13,0,.2.06,0,.09,0h0s.06,0,.07,0V9.33c.08,0,.11.12.18.16s0-.1.1-.15a.25.25,0,0,1,0,.12s0,.07,0,.11l.28-.27h0s0,.09.07.08,0-.07,0-.11,0,0,0,0,.06,0,.08,0l.22,0c.1,0,.1,0,.12.09h0s.09,0,.12,0a.29.29,0,0,1,.07.18.11.11,0,0,1,0,0c0,.06,0,.08.05.09s0,0,.06,0,.1-.16.06-.26,0,0,0-.05l.08,0c.12,0,.13,0,.16.09s0,.06,0,.07a.08.08,0,0,0,.1,0,1,1,0,0,1,.3-.23.11.11,0,0,1,.13,0l.09.07s.07,0,.09,0a.25.25,0,0,1,.26-.1H77s0,0,.06,0,.15,0,.23,0a.26.26,0,0,1,.15,0,.21.21,0,0,0,.2-.06l0,0a.91.91,0,0,1,0,.23s0,.06,0,0,0,0,0,0a.18.18,0,0,0,.08.09c.05,0,.07-.07,0-.12s0-.07,0-.1l.13-.08a.08.08,0,0,1,.12,0c.05.08.12.07.2,0a.64.64,0,0,1,.2,0s0,.06,0,.08v0h.14c.05,0,.08,0,.1,0a.1.1,0,0,1,.09,0,3,3,0,0,1,.42,0s.05,0,0,.06a0,0,0,0,0,0,.05s0,.06.06.05a0,0,0,0,0,0-.06s0-.05,0-.08.13,0,.17.07a.18.18,0,0,1,0,.09h0s-.08,0-.09,0,0,.09,0,.13.16.15.38.06a0,0,0,0,1,0,0s0,.06,0,.07,0,0,0,0,0-.05.06-.07,0,.06,0,.08a.08.08,0,0,0,.12,0,.71.71,0,0,0,.16-.07s0,.08,0,.1.12.11.21.1h0c0,.09.13.17.12.28v.14a.18.18,0,0,1-.06.18s0,0-.07-.06a.46.46,0,0,1-.36.31.16.16,0,0,1,0-.11.19.19,0,0,0,0-.16.2.2,0,0,1,0-.21.06.06,0,0,0,0-.08c0-.09,0-.09-.13,0a.12.12,0,0,1-.09,0l.05-.15s0,0-.06,0-.06,0,0,.07,0,.29,0,.44a.34.34,0,0,1-.1.33s0-.07-.07-.08l-.13.08a.15.15,0,0,1,0-.08l.16-.23a.07.07,0,0,0,0-.06.47.47,0,0,0-.06-.15s-.06.12-.1.17-.07-.06-.13-.05,0,.07,0,.11a2.71,2.71,0,0,1,0,.29c0,.06,0,.07-.07,0s-.19-.1-.2-.22a.06.06,0,0,0-.06,0s0,0-.09,0a.37.37,0,0,0-.34,0,.14.14,0,0,1-.16,0s0,0-.07,0-.06,0-.09,0,0-.07.05-.12a.33.33,0,0,0-.15,0l0,.17s0,.05,0,0a.88.88,0,0,1-.47-.18L78,10.42a.16.16,0,0,0-.2,0l-.06,0c-.05,0-.05,0-.08-.06a.55.55,0,0,0-.31.18.15.15,0,0,1-.15.06l-.45,0s0,0,0,0-.06-.06-.11-.07a.31.31,0,0,0-.19,0l-.37.15a.48.48,0,0,1,.09-.13l.06-.08s0,0,0-.06,0,0,0,0a.22.22,0,0,0-.16.14c0,.11-.11.23-.17.34s0,.08,0,.11a.15.15,0,0,1,0,.15,2.17,2.17,0,0,0,0,.36,2,2,0,0,0,0,.55.53.53,0,0,1,0,.28l0,.1a.11.11,0,0,0,0,.13.36.36,0,0,1,0,.11A3.06,3.06,0,0,0,76,13a.48.48,0,0,1,0,.29,1.75,1.75,0,0,0-.06.6c0,.28,0,.55,0,.83a.42.42,0,0,1,0,.16.36.36,0,0,0,0,.35.11.11,0,0,1,0,.08c0,.37,0,.74-.06,1.11,0,.11,0,.22,0,.34a.52.52,0,0,1-.07.37s.07,0,.07.06a.09.09,0,0,1,0,.08l-.26.16s-.05,0,0,.08l.06.1a.11.11,0,0,0,.1.06c.06,0,.1.05.15.09s0,.07,0,.1c0,.26,0,.53,0,.79s0,.44,0,.66v0C75.87,19.44,75.87,19.44,76,19.46Zm-1.15.79v0h.5c.05,0,.06,0,.06-.07a1.37,1.37,0,0,0-.07-.29c0-.14,0-.14-.16,0s0,.05,0,.09ZM75.49,22v0a1.36,1.36,0,0,1-.12-.12c-.07-.11-.18-.08-.28-.08s0,0,0,0A.34.34,0,0,0,75,22a.2.2,0,0,0,.09.19c.08-.07.09-.07.05-.12a.09.09,0,0,1,.1-.13Zm-.91-2v.19s0,.06,0,.07a.06.06,0,0,0,.07-.05,1.09,1.09,0,0,0,.07-.4s0,0,0,0h-.06s-.06,0-.06.06Zm.58-7.53h0l.06,0a.52.52,0,0,1,.39.19,0,0,0,0,0,0,0,.08.08,0,0,0,0,0s0-.07,0-.08-.11-.11-.16-.17-.07-.06-.12,0-.12.07-.18,0,0,0,0,0S75.18,12.46,75.16,12.48Zm0,9a.06.06,0,0,0-.06,0l-.31-.06c-.19,0-.19,0-.25.14,0,0,0,0,0,0Zm-.21-.28a3.52,3.52,0,0,0,.41.07c.08,0,.12,0,.1-.1a.14.14,0,0,0-.21-.06.31.31,0,0,1-.12.05Zm-.09-10.5v0l.31,0,.13,0a.07.07,0,0,0,.07-.08.08.08,0,0,0-.07-.08Zm.59,3.69.33.08s.07,0,.09,0,0-.09,0-.13a.05.05,0,0,0,0,0A2.49,2.49,0,0,0,75.41,14.39Zm-.81-1.11.2.08a.08.08,0,0,0,.1-.09s0-.09-.07-.07A.79.79,0,0,0,74.6,13.28Zm1.05,3.54-.19.09s0,0,0,0l.11,0c.06,0,.1,0,.09-.07A.12.12,0,0,0,75.65,16.82Zm-1.1-6.35a2.28,2.28,0,0,0,.21-.22l-.17.05c-.11,0-.11,0-.06.14Zm.38,2.95a1.3,1.3,0,0,1,.21,0s0,0,0,0,0,0,0,0a.57.57,0,0,0-.26,0,.07.07,0,0,0,0,.1.2.2,0,0,0,.08.08C75,13.53,74.92,13.49,74.93,13.42Zm-.33,7a.31.31,0,0,0,.09.07,0,0,0,0,0,0,0c.05,0,.05-.07,0-.13s-.06,0-.09,0S74.61,20.42,74.6,20.45ZM74.81,18s0,.06,0,.09a.34.34,0,0,0,.08.09s0,0,.06,0a0,0,0,0,0,0-.07ZM75,19.16c.07-.11.07-.11,0-.2C74.89,19.05,74.89,19.05,75,19.16Zm2.32-9.8h-.09c-.07,0-.09,0-.09.11s0,0,0,0,0,0,0,0ZM74.83,17c0,.06,0,.11,0,.16s0,.05.06,0,0-.05,0-.08A.52.52,0,0,0,74.83,17Zm3.64-6.66s0,.1-.07.15,0,0,0,0,0,0,0,0Zm-3.64,7.5c.06-.08.06-.08,0-.16S74.76,17.74,74.83,17.83Zm-.35,1.61c.08-.08.08-.08,0-.16C74.42,19.36,74.42,19.36,74.48,19.44Zm-1-10a.07.07,0,0,0,0,0s0,0,0,.07,0,.06.07,0a.08.08,0,0,0,0-.08S73.48,9.47,73.47,9.45Zm1.38,5.29a.08.08,0,0,1,0,.13.44.44,0,0,0,.16-.06A.48.48,0,0,0,74.85,14.74Zm.88,5.33c0,.07,0,.12,0,.17S75.8,20.16,75.73,20.07ZM75,9.44c.06-.06,0-.11,0-.17C74.94,9.37,74.94,9.37,75,9.44Zm-.2,1.66a.35.35,0,0,0,0,.17C74.87,11.21,74.87,11.21,74.8,11.1Zm0,1.85s0-.07,0-.09-.07,0-.1,0,0,0,0,0S74.74,13,74.77,13Zm-.11,6.44c-.06.07-.06.07,0,.13S74.71,19.43,74.66,19.39Zm2-10.08s0,.09,0,.13S76.72,9.38,76.66,9.31Zm1.94.42a.11.11,0,0,0-.11,0s0,.07.07.08S78.61,9.77,78.6,9.73Zm-3.35,4c0-.07,0-.07,0-.13S75.21,13.7,75.25,13.76Zm1-4.27a.12.12,0,0,0,.07.07s0,0,0,0,0,0,0,0S76.3,9.46,76.25,9.49Zm1.48.13s0-.09,0-.14A.09.09,0,0,0,77.73,9.62Zm-.38,0c.06-.1.06-.1,0-.14ZM74.55,22c.11,0,.11,0,.13-.05A.43.43,0,0,0,74.55,22Zm.23-3.61a.18.18,0,0,0-.09-.08c0,.05,0,.09,0,.13A.15.15,0,0,0,74.78,18.35Zm0-6.9s0,0,.06.05,0,0,0,0,0,0,0,0S74.82,11.44,74.79,11.45Zm.75-1.76c.06,0,.08,0,.11-.07S75.57,9.66,75.54,9.69ZM75,14.17s0,0,0,0a0,0,0,0,0,0,0s0,0,0,0S75,14.16,75,14.17Zm-.14,5.38s0,0,0,0,0,0,0,0l0,0S74.83,19.55,74.84,19.55Zm2-10.15s0,.06,0,.07h0S76.85,9.42,76.83,9.4Zm-1.11,2.2s0,.05,0,.06h0S75.74,11.62,75.72,11.6Z"/><path d="M105,21.63a.14.14,0,0,1,0,.16.26.26,0,0,0,0,.21.3.3,0,0,0,.1.19s0,.1,0,.11h0c-.15,0-.15,0-.16-.12a.66.66,0,0,1,.13-.54A.06.06,0,0,1,105,21.63Z"/><path d="M56.37,21.62a.12.12,0,0,1,0,.15.34.34,0,0,0,.06.42.06.06,0,0,1,0,.11l-.09,0c-.1,0-.1,0-.11-.08a1,1,0,0,1,0-.3A.49.49,0,0,1,56.37,21.62Z"/><path d="M88.05,22.61a.13.13,0,0,1,0,.06s0,0,0,.06,0,.07,0,.09a0,0,0,0,1-.06,0s0,0,0,0,0-.05,0-.07-.06-.1-.11-.14,0-.12,0-.14,0,0,0,0,0,0,.09.06S88.05,22.57,88.05,22.61Z"/><path d="M89.57,13.86v.06s0,.05,0,.05a0,0,0,0,1,0-.05.13.13,0,0,0-.06-.11.11.11,0,0,1,0-.16h0A.31.31,0,0,1,89.57,13.86Z"/><path d="M42.18,13.68c0-.16.15-.19.26-.25C42.43,13.6,42.35,13.67,42.18,13.68Z"/><path d="M42.52,15.21v0c0,.06-.05.09-.1.08a.1.1,0,0,1-.06-.11l0,0s0-.08.07-.06.06.05.06.09Z"/><path d="M104.34,13.05s0,.08,0,.09-.07,0-.08-.08a.13.13,0,0,1,0-.12s0-.06,0,0a0,0,0,0,1,0,0A.2.2,0,0,1,104.34,13.05Z"/><path d="M48.34,16.14s0,.09,0,.1-.07,0-.08-.09,0-.08,0-.12.06-.05.1,0A.25.25,0,0,1,48.34,16.14Z"/><path d="M55.68,13v0s0,.06,0,.07a.09.09,0,0,1-.08-.05.19.19,0,0,1,0-.19s0,0,0,0S55.68,13,55.68,13Z"/><path d="M51.79,21.2v0s0,.05,0,.05-.05,0-.07,0a.19.19,0,0,1,0-.18s.06,0,.09,0A.19.19,0,0,1,51.79,21.2Z"/><path d="M97,16.14s0,.09,0,.1-.07,0-.08-.08a.14.14,0,0,1,0-.15s0,0,.07,0S97,16.09,97,16.14Z"/><path d="M100.44,21.19s0,.09,0,.1-.07,0-.08-.09a.14.14,0,0,1,0-.11s0-.05.05,0a.07.07,0,0,1,.06,0A.34.34,0,0,1,100.44,21.19Z"/><path d="M42.26,18h0s-.09,0-.12,0,0-.09,0-.13,0-.06.06,0a.07.07,0,0,1,.06.07S42.26,18,42.26,18Z"/><path d="M49.7,21.59s0,.08-.05.09a.08.08,0,0,1-.08-.07.18.18,0,0,1,0-.15s0,0,0,0A.14.14,0,0,1,49.7,21.59Z"/><path d="M42.4,11l0,0c-.06,0-.08,0-.09-.07s0-.07,0-.1,0-.05.05-.05a.09.09,0,0,1,.06.06.33.33,0,0,1,0,.14Z"/><path d="M98.36,21.6s0,.07,0,.08a.09.09,0,0,1-.09-.05,0,0,0,0,0,0,0c0-.06,0-.15.06-.15s.07.05.08.12Z"/><path d="M86.38,23.87s0,0,0,.06a.07.07,0,0,1-.06,0,.05.05,0,0,1,0,0,.15.15,0,0,1,0-.13s0-.07,0-.07a.07.07,0,0,1,.07.08Z"/><path d="M73,11a.22.22,0,0,0-.07-.17c-.06-.07-.06-.07,0-.14l0,0a2,2,0,0,1,.08.22S73.05,11,73,11Z"/><path d="M44,14.14a.2.2,0,0,1,0-.09s0-.05,0-.05a.07.07,0,0,1,.06,0,.14.14,0,0,1,0,.11.08.08,0,0,1-.09.07S44,14.19,44,14.14Z"/><path d="M95.15,20.79a.12.12,0,0,1,.11.16.09.09,0,0,1-.09.07s-.06,0,0-.09a.74.74,0,0,1,0-.14Z"/><path d="M50,13q0,.09-.06.09c-.05,0-.08,0-.08-.1s0-.11.08-.11S50,12.92,50,13Z"/><path d="M104.86,13.77v0c0,.06,0,.09-.09.08s-.06-.07,0-.12a.08.08,0,0,1,0,0s0-.07.07-.06,0,.05,0,.08Z"/><path d="M95.58,17.38c0,.08,0,.11-.07.11s-.08,0-.07-.12,0-.09.08-.09S95.58,17.32,95.58,17.38Z"/><path d="M78.88,15.67c0,.05,0,.1-.06.09a.1.1,0,0,1-.08-.1.13.13,0,0,1,.07-.1S78.88,15.6,78.88,15.67Z"/><path d="M56.68,22.2c0,.06,0,.08-.08.06s-.05-.07-.06-.12,0-.09.06-.09,0,0,.06.07A.31.31,0,0,1,56.68,22.2Z"/><path d="M84.61,14.52s0,.08-.06.09-.08,0-.08-.1,0-.11.08-.11S84.61,14.43,84.61,14.52Z"/><path d="M98.68,13s0,.09-.06.09-.08,0-.08-.1a.13.13,0,0,1,.07-.11S98.68,12.89,98.68,13Z"/><path d="M50.68,12.51h0q0,.11-.06.09s0-.06-.06-.1,0-.14.06-.14S50.68,12.42,50.68,12.51Z"/><path d="M56.21,13.77s0,.09-.06.11a0,0,0,0,1-.06,0,.1.1,0,0,1,0-.13s0-.08.07-.07S56.2,13.73,56.21,13.77Z"/><path d="M90.45,22.39a.08.08,0,0,1,0,.1s-.08,0-.08,0a.17.17,0,0,1,0-.07s0-.09.06-.08S90.45,22.35,90.45,22.39Z"/><path d="M105.33,22.2s0,.05,0,.06a.11.11,0,0,1-.08,0,.17.17,0,0,1,0-.12.09.09,0,0,1,0-.09s0,0,.07.07A.28.28,0,0,1,105.33,22.2Z"/><path d="M99.33,12.5v0s0,.07,0,.07,0,0-.06-.06a.21.21,0,0,1,0-.15,0,0,0,0,1,0,0s0,0,0,0A.28.28,0,0,1,99.33,12.5Z"/><path d="M104,22.49s0,.07-.06.07-.08,0-.08-.11,0-.08.06-.09S104,22.42,104,22.49Z"/><path d="M79.35,13.44v0a.07.07,0,0,1-.07,0,.06.06,0,0,1-.06,0,.08.08,0,0,1,0-.08s0-.07.06-.07S79.35,13.37,79.35,13.44Z"/><path d="M79,19.29s0,.05,0,.07a.06.06,0,0,1-.08,0s0-.07,0-.1,0-.09.09-.08S78.94,19.24,79,19.29Z"/><path d="M55.34,22.49s0,.07-.06.07a.09.09,0,0,1-.07-.11s0-.08.06-.09S55.35,22.42,55.34,22.49Z"/><path d="M86.88,23.86v0s0,.07-.05.06,0,0-.06-.06v0c0-.06,0-.12.06-.12S86.88,23.79,86.88,23.86Z"/><path d="M92.31,22.6c0,.07,0,.12-.06.12s-.06,0,0-.12,0-.11.06-.1S92.31,22.56,92.31,22.6Z"/><path d="M93.15,22.5a.08.08,0,0,1,.08-.08s0,0,0,.08,0,.08,0,.1a.11.11,0,0,1-.08,0S93.15,22.53,93.15,22.5Z"/><path d="M83.7,22.38v0s0,0,0,0a.05.05,0,0,1,0,0,.14.14,0,0,1,0-.18s0,0,.05,0A.2.2,0,0,1,83.7,22.38Z"/><path d="M66.24,15.78V16s0,0,0,0l0,0c0-.05,0-.1,0-.15S66.19,15.8,66.24,15.78Z"/><path d="M82.71,22.47a.08.08,0,0,1,0,.08h-.06a.09.09,0,0,1,0-.09s0-.1.07-.1S82.7,22.43,82.71,22.47Z"/><path d="M57.23,16.25a.29.29,0,0,1,0,.22,0,0,0,0,1,0,0s0,0,0-.05S57.2,16.33,57.23,16.25Z"/><path d="M59.31,13.85a.21.21,0,0,1,0,.2s0,0-.05,0a.1.1,0,0,1,0-.05A.34.34,0,0,1,59.31,13.85Z"/><path d="M64.77,21.61a.09.09,0,0,1,0,.09s0,0-.06,0a.09.09,0,0,1,0-.1l0,0s.06,0,.07,0A.07.07,0,0,1,64.77,21.61Z"/><path d="M64.85,22.56a.17.17,0,0,1,0,.17s0,0,0,0,0,0,0,0A.14.14,0,0,1,64.85,22.56Z"/><path d="M64.85,16a.17.17,0,0,1,0,.17,0,0,0,0,1,0,0s0,0,0,0A.14.14,0,0,1,64.85,16Z"/><path d="M64.77,20.36v0s0,.07-.07.06a.08.08,0,0,1,0-.09l0,0s0-.06.06,0S64.77,20.33,64.77,20.36Z"/><path d="M58.66,14.19a.25.25,0,0,1,0,.2s0,0,0,0,0,0,0,0S58.62,14.26,58.66,14.19Z"/><path d="M60.31,22.24a.19.19,0,0,1,0,.19s0,0,0,0,0,0-.05,0A.22.22,0,0,1,60.31,22.24Z"/><path d="M64.88,15.66s0,.09,0,.1,0,0,0-.1,0-.09.06-.09S64.88,15.63,64.88,15.66Z"/><path d="M70.59,20.57s0,.08,0,.08-.05,0-.05-.09,0-.1.06-.1S70.59,20.5,70.59,20.57Z"/><path d="M65.14,14.79a.81.81,0,0,1,0,.16s0,0,0,0,0,0,0,0,0-.13.08-.16Z"/><path d="M74.48,16.34c.08.09.09.12,0,.18S74.41,16.43,74.48,16.34Z"/><path d="M75.9,21.37c0,.05.08.08,0,.14s0,0-.05,0a.11.11,0,0,1,0-.1A.11.11,0,0,1,75.9,21.37Z"/><path d="M74.59,14c.09.1.09.12,0,.18S74.51,14.09,74.59,14Z"/><path d="M93.5,22.29a.5.5,0,0,1,0,.17,0,0,0,0,1-.07,0,.08.08,0,0,1,0-.09A.15.15,0,0,1,93.5,22.29Z"/><path d="M70.14,17s0,.07,0,.08h0a.09.09,0,0,1,0-.1l0,0s0,0,0,0a.05.05,0,0,1,0,.05S70.14,17,70.14,17Z"/><path d="M65,22.48a.26.26,0,0,1,0,.15,0,0,0,0,1,0,0,.07.07,0,0,1-.06,0,.09.09,0,0,1,0-.07S65,22.5,65,22.48Z"/><path d="M64.79,19.21a.31.31,0,0,1,0,.16.05.05,0,0,1,0,0s0,0,0,0A.14.14,0,0,1,64.79,19.21Z"/><path d="M43,22.77c-.06-.1-.06-.13,0-.22A.24.24,0,0,1,43,22.77Z"/><path d="M78.91,18.14l.06.13s0,.05,0,.05-.06,0-.06,0A.41.41,0,0,1,78.91,18.14Z"/><path d="M88.88,23.14a1.28,1.28,0,0,1,0,.18s0,0,0,0a0,0,0,0,1,0,0A.28.28,0,0,1,88.88,23.14Z"/><path d="M69.31,14.32a.43.43,0,0,1,0,.16s0,0,0,0l0,0s0-.06,0-.09S69.27,14.34,69.31,14.32Z"/><path d="M48.34,16.69a.29.29,0,0,1,0-.24C48.38,16.52,48.37,16.59,48.34,16.69Z"/><path d="M78.63,17a.17.17,0,0,1,0,.16s0,0,0,0a0,0,0,0,1,0,0A.18.18,0,0,1,78.63,17Z"/><path d="M87.94,13.76a.35.35,0,0,1,0,.17s0,0,0,0,0,0,0,0A.18.18,0,0,1,87.94,13.76Z"/><path d="M97,16.45a.28.28,0,0,1,0,.19,0,0,0,0,1,0,0l0,0A.25.25,0,0,1,97,16.45Z"/><path d="M85.17,23.42H85a.19.19,0,0,1,0-.1S85.14,23.37,85.17,23.42Z"/><path d="M95.68,17.4a.43.43,0,0,1,0,.16C95.61,17.49,95.61,17.49,95.68,17.4Z"/><path d="M70.5,18.16a.41.41,0,0,1,0,.15s0,0,0,0,0,0,0,0A.19.19,0,0,1,70.5,18.16Z"/><path d="M42.32,21.63a.05.05,0,0,1,0,.05,0,0,0,0,1-.05-.05s0-.06,0-.06S42.31,21.59,42.32,21.63Z"/><path d="M70.5,20.75a.21.21,0,0,1,0,.13s0,0,0,0,0,0,0,0S70.46,20.8,70.5,20.75Z"/><path d="M70.51,20.18a.37.37,0,0,1,0,.15s0,0,0,0,0,0,0,0S70.46,20.24,70.51,20.18Z"/><path d="M88,22.19s-.07-.06-.07-.1S88,22.08,88,22.19Z"/><path d="M65.23,9.4c0,.08,0,.12-.06.14S65.19,9.46,65.23,9.4Z"/><path d="M63.55,22.57c0,.06,0,.1,0,.12a0,0,0,0,1,0,0S63.52,22.62,63.55,22.57Z"/><path d="M98.55,18.71s0,0,0,0,0-.07,0-.08,0,0,0,0A.08.08,0,0,1,98.55,18.71Z"/><path d="M49.88,18.7s0,0,0,0,0-.07,0-.07,0,0,0,0S49.92,18.71,49.88,18.7Z"/><path d="M70.27,22.58s0,0,0,0a0,0,0,0,1,0,.06h0a0,0,0,0,1,0-.06S70.25,22.58,70.27,22.58Z"/><path d="M99.43,12.26s0,.07,0,.1h0S99.4,12.29,99.43,12.26Z"/><path d="M57.35,16.07a.07.07,0,0,1,0,.05s0,0,0,0,0,0,0,0,0,0,0-.06S57.33,16.07,57.35,16.07Z"/><path d="M69.56,14s0,.07,0,.11S69.56,14.07,69.56,14Z"/><path d="M95.51,17.08l0,0s0,0,0,.06h0s0,0,0-.06Z"/><path d="M48.49,21.46s0,0,0,.06,0,0,0,0,0,0,0,0S48.49,21.49,48.49,21.46Z"/><path d="M87.92,13.54h0s0,.06,0,.08,0,0,0,0A.05.05,0,0,1,87.92,13.54Z"/><path d="M75.12,22.89a.09.09,0,0,1-.11,0C75,22.86,75.07,22.88,75.12,22.89Z"/><path d="M64.84,18s0,0,0,0,0,0,0,0,0,0,0,0S64.82,18,64.84,18Z"/><path d="M58.11,14.87a0,0,0,0,1,0,0s0,0,0,0l0,0S58.09,14.88,58.11,14.87Z"/><path d="M42.41,22.32a0,0,0,0,1,0,0s.05,0,0,0a0,0,0,0,1,0,0S42.41,22.33,42.41,22.32Z"/><path d="M50.76,12.27h0s0,.05,0,.07h0S50.74,12.3,50.76,12.27Z"/><path d="M84.66,18h0a0,0,0,0,1,0,0l0,0S84.64,18,84.66,18Z"/><path d="M66.26,15.55s0,0,0,0l0,0a0,0,0,0,1,0,0S66.25,15.55,66.26,15.55Z"/><path d="M70.7,23.13s0,0,0,0,0,0,0,0,0,0,0,0S70.72,23.12,70.7,23.13Z"/><path d="M92.16,14.72s0,0,0,0a.05.05,0,0,1,.06-.06s0,0,0,.05A0,0,0,0,1,92.16,14.72Z"/><path d="M51.34,13.12a1.34,1.34,0,0,1,0,.2s0,0-.06,0-.06-.07,0-.13a.13.13,0,0,1,0-.1Z"/><path d="M54.12,13.58s0,.09,0,.1-.07,0-.06-.11,0-.12.06-.11S54.12,13.53,54.12,13.58Z"/><path d="M100,13.27s0,.08,0,.09-.06,0-.07-.09v0c0-.05,0-.13.06-.12s0,.07.05.11Z"/><path d="M102.78,13.59s0,.08,0,.09-.06,0-.07-.09,0-.13.06-.13S102.78,13.51,102.78,13.59Z"/><path d="M43,12.71a.07.07,0,0,1,0-.07.07.07,0,0,1,0,.07Z"/></svg>